<?xml version="1.0" encoding="UTF-8"?>
<svg xmlns="http://www.w3.org/2000/svg" viewBox="-42 -44 84 86" role="img" aria-labelledby="bronica-gs-base-lens_side_rear-title bronica-gs-base-lens_side_rear-desc"><title id="bronica-gs-base-lens_side_rear-title">Zenza Bronica GS mount — lens-side rear view (base)</title><desc id="bronica-gs-base-lens_side_rear-desc">Zenza Bronica GS bayonet mount, lens-side rear view. Flange focal distance 85 mm, nominal throat 57 mm. Profile bronica-gs/base.</desc><metadata>{"mountId":"bronica-gs","profileId":"bronica-gs/base","view":"lens_side_rear","schemaVersion":"1.3"}</metadata><g data-layer="datum-axis"><line x1="-1.7" y1="0" x2="1.7" y2="0" stroke="#8a94a0" stroke-width="0.504" fill="none" /><line x1="0" y1="-1.7" x2="0" y2="1.7" stroke="#8a94a0" stroke-width="0.504" fill="none" /><line x1="0" y1="-34" x2="0" y2="-36.04" stroke="#8a94a0" stroke-width="0.504" fill="none" /></g><g data-layer="lens-side-metal"><path d="M0,-34 A34,34 0 1 1 0,34 A34,34 0 1 1 0,-34 Z M0,-27.5 A27.5,27.5 0 1 1 0,27.5 A27.5,27.5 0 1 1 0,-27.5 Z" fill="#6b7a8f" fill-opacity="0.12" fill-rule="evenodd" /><path d="M0,-34 A34,34 0 1 1 0,34 A34,34 0 1 1 0,-34 Z M0,-27.5 A27.5,27.5 0 1 1 0,27.5 A27.5,27.5 0 1 1 0,-27.5 Z" stroke="#6b7a8f" stroke-width="0.504" fill="none" stroke-dasharray="4 2" /><path d="M0,-27.5 A27.5,27.5 0 1 1 0,27.5 A27.5,27.5 0 1 1 0,-27.5 Z" stroke="#2f80c4" stroke-width="0.504" fill="none" stroke-dasharray="4 2" /></g><g data-layer="lens-side-core-interface"><path d="M0,-31.1 L-2.106,-34.436 L2.106,-34.436 Z" fill="#e8853a" fill-opacity="0.12" /><path d="M0,-31.1 L-2.106,-34.436 L2.106,-34.436 Z" stroke="#e8853a" stroke-width="0.504" fill="none" stroke-dasharray="0.6 1.6" /><circle cx="29.5" cy="0" r="1.19" fill="#d1495b" fill-opacity="0.12" /><circle cx="29.5" cy="0" r="1.19" stroke="#d1495b" stroke-width="0.504" fill="none" stroke-dasharray="0.6 1.6" /><path d="M28.223,-3.966 L30.698,-4.314 A31,31 0 0 1 27.371,14.554 L25.164,13.38 A28.5,28.5 0 0 0 28.223,-3.966 Z" fill="#2a9d8f" fill-opacity="0.12" /><path d="M28.223,-3.966 L30.698,-4.314 A31,31 0 0 1 27.371,14.554 L25.164,13.38 A28.5,28.5 0 0 0 28.223,-3.966 Z" stroke="#2a9d8f" stroke-width="0.504" fill="none" stroke-dasharray="4 2" /><path d="M-10.676,26.425 L-11.613,28.743 A31,31 0 0 1 -26.289,16.427 L-24.169,15.103 A28.5,28.5 0 0 0 -10.676,26.425 Z" fill="#2a9d8f" fill-opacity="0.12" /><path d="M-10.676,26.425 L-11.613,28.743 A31,31 0 0 1 -26.289,16.427 L-24.169,15.103 A28.5,28.5 0 0 0 -10.676,26.425 Z" stroke="#2a9d8f" stroke-width="0.504" fill="none" stroke-dasharray="4 2" /><path d="M-17.546,-22.458 L-19.086,-24.428 A31,31 0 0 1 -1.082,-30.981 L-0.995,-28.483 A28.5,28.5 0 0 0 -17.546,-22.458 Z" fill="#2a9d8f" fill-opacity="0.12" /><path d="M-17.546,-22.458 L-19.086,-24.428 A31,31 0 0 1 -1.082,-30.981 L-0.995,-28.483 A28.5,28.5 0 0 0 -17.546,-22.458 Z" stroke="#2a9d8f" stroke-width="0.504" fill="none" stroke-dasharray="4 2" /></g><g data-layer="lens-side-variant-mechanical"><circle cx="17.998" cy="-21.449" r="1.02" stroke="#b5651d" stroke-width="0.504" fill="none" stroke-dasharray="4 2" /><circle cx="-17.998" cy="-21.449" r="1.02" stroke="#b5651d" stroke-width="0.504" fill="none" stroke-dasharray="4 2" /></g><g aria-hidden="true"><line x1="-40.32" y1="-39.7" x2="-35.28" y2="-39.7" stroke="#2f80c4" stroke-width="0.602" /><text x="-33.904" y="-38.737" font-size="2.752" fill="#2f80c4" font-family="sans-serif">Throat / opening</text><line x1="-40.32" y1="-35.572" x2="-35.28" y2="-35.572" stroke="#6b7a8f" stroke-width="0.602" /><text x="-33.904" y="-34.609" font-size="2.752" fill="#6b7a8f" font-family="sans-serif">Mount ring</text><line x1="-40.32" y1="-31.444" x2="-35.28" y2="-31.444" stroke="#2a9d8f" stroke-width="0.602" /><text x="-33.904" y="-30.481" font-size="2.752" fill="#2a9d8f" font-family="sans-serif">Bayonet lug / slot</text><line x1="-40.32" y1="-27.316" x2="-35.28" y2="-27.316" stroke="#d1495b" stroke-width="0.602" /><text x="-33.904" y="-26.353" font-size="2.752" fill="#d1495b" font-family="sans-serif">Lock pin / notch</text><line x1="-40.32" y1="-23.188" x2="-35.28" y2="-23.188" stroke="#e8853a" stroke-width="0.602" /><text x="-33.904" y="-22.225" font-size="2.752" fill="#e8853a" font-family="sans-serif">Index mark</text><line x1="-40.32" y1="-19.06" x2="-35.28" y2="-19.06" stroke="#b5651d" stroke-width="0.602" /><text x="-33.904" y="-18.097" font-size="2.752" fill="#b5651d" font-family="sans-serif">Mechanical coupling</text><line x1="-40.32" y1="-14.932" x2="-35.28" y2="-14.932" stroke="#8a94a0" stroke-width="0.602" /><text x="-33.904" y="-13.969" font-size="2.752" fill="#8a94a0" font-family="sans-serif">Datum &amp; axis</text></g></svg>
