<?xml version="1.0" encoding="UTF-8"?>
<svg xmlns="http://www.w3.org/2000/svg" viewBox="-40 -42 80 82" role="img" aria-labelledby="canon-ef-base-camera_side_front-title canon-ef-base-camera_side_front-desc"><title id="canon-ef-base-camera_side_front-title">Canon EF mount — camera-side front view (base)</title><desc id="canon-ef-base-camera_side_front-desc">Canon EF bayonet mount, camera-side front view. Flange focal distance 44 mm, nominal throat 54 mm. Profile canon-ef/base.</desc><metadata>{"mountId":"canon-ef","profileId":"canon-ef/base","view":"camera_side_front","schemaVersion":"1.3"}</metadata><g data-layer="datum-axis"><line x1="-1.625" y1="0" x2="1.625" y2="0" stroke="#8a94a0" stroke-width="0.48" fill="none" /><line x1="0" y1="-1.625" x2="0" y2="1.625" stroke="#8a94a0" stroke-width="0.48" fill="none" /><line x1="0" y1="-32.5" x2="0" y2="-34.45" stroke="#8a94a0" stroke-width="0.48" fill="none" /></g><g data-layer="camera-side-metal"><path d="M0,-32.5 A32.5,32.5 0 1 1 0,32.5 A32.5,32.5 0 1 1 0,-32.5 Z M0,-27 A27,27 0 1 1 0,27 A27,27 0 1 1 0,-27 Z" fill="#6b7a8f" fill-opacity="0.12" fill-rule="evenodd" /><path d="M0,-32.5 A32.5,32.5 0 1 1 0,32.5 A32.5,32.5 0 1 1 0,-32.5 Z M0,-27 A27,27 0 1 1 0,27 A27,27 0 1 1 0,-27 Z" stroke="#6b7a8f" stroke-width="0.48" fill="none" stroke-dasharray="4 2" /><path d="M0,-27 A27,27 0 1 1 0,27 A27,27 0 1 1 0,-27 Z" stroke="#2f80c4" stroke-width="0.36" fill="none" /><circle cx="8.023" cy="-29.944" r="1" stroke="#7f8c3a" stroke-width="0.48" fill="none" stroke-dasharray="4 2" /><circle cx="29.944" cy="-8.023" r="1" stroke="#7f8c3a" stroke-width="0.48" fill="none" stroke-dasharray="4 2" /><circle cx="21.92" cy="21.92" r="1" stroke="#7f8c3a" stroke-width="0.48" fill="none" stroke-dasharray="4 2" /><circle cx="-8.023" cy="29.944" r="1" stroke="#7f8c3a" stroke-width="0.48" fill="none" stroke-dasharray="4 2" /><circle cx="-29.944" cy="8.023" r="1" stroke="#7f8c3a" stroke-width="0.48" fill="none" stroke-dasharray="4 2" /><circle cx="-21.92" cy="-21.92" r="1" stroke="#7f8c3a" stroke-width="0.48" fill="none" stroke-dasharray="4 2" /></g><g data-layer="camera-side-core-interface"><path d="M0,-29.75 L-2.015,-32.938 L2.015,-32.938 Z" fill="#e8853a" fill-opacity="0.12" /><path d="M0,-29.75 L-2.015,-32.938 L2.015,-32.938 Z" stroke="#e8853a" stroke-width="0.48" fill="none" stroke-dasharray="0.6 1.6" /><path d="M2.822,-26.852 L3.136,-29.836 A30,30 0 0 1 24.271,-17.634 L21.843,-15.87 A27,27 0 0 0 2.822,-26.852 Z" fill="#2a9d8f" fill-opacity="0.12" /><path d="M2.822,-26.852 L3.136,-29.836 A30,30 0 0 1 24.271,-17.634 L21.843,-15.87 A27,27 0 0 0 2.822,-26.852 Z" stroke="#2a9d8f" stroke-width="0.48" fill="none" stroke-dasharray="4 2" /><path d="M21.276,16.623 L23.64,18.47 A30,30 0 0 1 4.175,29.708 L3.758,26.737 A27,27 0 0 0 21.276,16.623 Z" fill="#2a9d8f" fill-opacity="0.12" /><path d="M21.276,16.623 L23.64,18.47 A30,30 0 0 1 4.175,29.708 L3.758,26.737 A27,27 0 0 0 21.276,16.623 Z" stroke="#2a9d8f" stroke-width="0.48" fill="none" stroke-dasharray="4 2" /><circle cx="-28" cy="0" r="1.138" fill="#d1495b" fill-opacity="0.12" /><circle cx="-28" cy="0" r="1.138" stroke="#d1495b" stroke-width="0.48" fill="none" stroke-dasharray="0.6 1.6" /><path d="M-26.984,-0.942 L-29.982,-1.047 A30,30 0 0 1 -22.294,-20.074 L-20.065,-18.067 A27,27 0 0 0 -26.984,-0.942 Z" fill="#2a9d8f" fill-opacity="0.12" /><path d="M-26.984,-0.942 L-29.982,-1.047 A30,30 0 0 1 -22.294,-20.074 L-20.065,-18.067 A27,27 0 0 0 -26.984,-0.942 Z" stroke="#2a9d8f" stroke-width="0.48" fill="none" stroke-dasharray="4 2" /></g><g data-layer="camera-side-variant-electrical"><path d="M11.609,20.432 L13.091,23.041 A26.5,26.5 0 0 1 11.781,23.737 L10.447,21.05 A23.5,23.5 0 0 0 11.609,20.432 Z" fill="#8a5cd1" fill-opacity="0.12" /><path d="M11.609,20.432 L13.091,23.041 A26.5,26.5 0 0 1 11.781,23.737 L10.447,21.05 A23.5,23.5 0 0 0 11.609,20.432 Z" stroke="#8a5cd1" stroke-width="0.48" fill="none" stroke-dasharray="4 2" /><path d="M8.653,21.849 L9.757,24.638 A26.5,26.5 0 0 1 8.363,25.146 L7.416,22.299 A23.5,23.5 0 0 0 8.653,21.849 Z" fill="#8a5cd1" fill-opacity="0.12" /><path d="M8.653,21.849 L9.757,24.638 A26.5,26.5 0 0 1 8.363,25.146 L7.416,22.299 A23.5,23.5 0 0 0 8.653,21.849 Z" stroke="#8a5cd1" stroke-width="0.48" fill="none" stroke-dasharray="4 2" /><path d="M5.528,22.841 L6.233,25.757 A26.5,26.5 0 0 1 4.782,26.065 L4.24,23.114 A23.5,23.5 0 0 0 5.528,22.841 Z" fill="#8a5cd1" fill-opacity="0.12" /><path d="M5.528,22.841 L6.233,25.757 A26.5,26.5 0 0 1 4.782,26.065 L4.24,23.114 A23.5,23.5 0 0 0 5.528,22.841 Z" stroke="#8a5cd1" stroke-width="0.48" fill="none" stroke-dasharray="4 2" /><path d="M2.295,23.388 L2.588,26.373 A26.5,26.5 0 0 1 1.108,26.477 L0.982,23.479 A23.5,23.5 0 0 0 2.295,23.388 Z" fill="#8a5cd1" fill-opacity="0.12" /><path d="M2.295,23.388 L2.588,26.373 A26.5,26.5 0 0 1 1.108,26.477 L0.982,23.479 A23.5,23.5 0 0 0 2.295,23.388 Z" stroke="#8a5cd1" stroke-width="0.48" fill="none" stroke-dasharray="4 2" /><path d="M-0.982,23.479 L-1.108,26.477 A26.5,26.5 0 0 1 -2.588,26.373 L-2.295,23.388 A23.5,23.5 0 0 0 -0.982,23.479 Z" fill="#8a5cd1" fill-opacity="0.12" /><path d="M-0.982,23.479 L-1.108,26.477 A26.5,26.5 0 0 1 -2.588,26.373 L-2.295,23.388 A23.5,23.5 0 0 0 -0.982,23.479 Z" stroke="#8a5cd1" stroke-width="0.48" fill="none" stroke-dasharray="4 2" /><path d="M-4.24,23.114 L-4.782,26.065 A26.5,26.5 0 0 1 -6.233,25.757 L-5.528,22.841 A23.5,23.5 0 0 0 -4.24,23.114 Z" fill="#8a5cd1" fill-opacity="0.12" /><path d="M-4.24,23.114 L-4.782,26.065 A26.5,26.5 0 0 1 -6.233,25.757 L-5.528,22.841 A23.5,23.5 0 0 0 -4.24,23.114 Z" stroke="#8a5cd1" stroke-width="0.48" fill="none" stroke-dasharray="4 2" /><path d="M-7.416,22.299 L-8.363,25.146 A26.5,26.5 0 0 1 -9.757,24.638 L-8.653,21.849 A23.5,23.5 0 0 0 -7.416,22.299 Z" fill="#8a5cd1" fill-opacity="0.12" /><path d="M-7.416,22.299 L-8.363,25.146 A26.5,26.5 0 0 1 -9.757,24.638 L-8.653,21.849 A23.5,23.5 0 0 0 -7.416,22.299 Z" stroke="#8a5cd1" stroke-width="0.48" fill="none" stroke-dasharray="4 2" /><path d="M-10.447,21.05 L-11.781,23.737 A26.5,26.5 0 0 1 -13.091,23.041 L-11.609,20.432 A23.5,23.5 0 0 0 -10.447,21.05 Z" fill="#8a5cd1" fill-opacity="0.12" /><path d="M-10.447,21.05 L-11.781,23.737 A26.5,26.5 0 0 1 -13.091,23.041 L-11.609,20.432 A23.5,23.5 0 0 0 -10.447,21.05 Z" stroke="#8a5cd1" stroke-width="0.48" fill="none" stroke-dasharray="4 2" /></g><g aria-hidden="true"><line x1="-38.4" y1="-37.9" x2="-33.6" y2="-37.9" stroke="#2f80c4" stroke-width="0.574" /><text x="-32.288" y="-36.982" font-size="2.624" fill="#2f80c4" font-family="sans-serif">Throat / opening</text><line x1="-38.4" y1="-33.964" x2="-33.6" y2="-33.964" stroke="#6b7a8f" stroke-width="0.574" /><text x="-32.288" y="-33.046" font-size="2.624" fill="#6b7a8f" font-family="sans-serif">Mount ring</text><line x1="-38.4" y1="-30.028" x2="-33.6" y2="-30.028" stroke="#2a9d8f" stroke-width="0.574" /><text x="-32.288" y="-29.11" font-size="2.624" fill="#2a9d8f" font-family="sans-serif">Bayonet lug / slot</text><line x1="-38.4" y1="-26.092" x2="-33.6" y2="-26.092" stroke="#d1495b" stroke-width="0.574" /><text x="-32.288" y="-25.174" font-size="2.624" fill="#d1495b" font-family="sans-serif">Lock pin / notch</text><line x1="-38.4" y1="-22.156" x2="-33.6" y2="-22.156" stroke="#e8853a" stroke-width="0.574" /><text x="-32.288" y="-21.238" font-size="2.624" fill="#e8853a" font-family="sans-serif">Index mark</text><line x1="-38.4" y1="-18.22" x2="-33.6" y2="-18.22" stroke="#8a5cd1" stroke-width="0.574" /><text x="-32.288" y="-17.302" font-size="2.624" fill="#8a5cd1" font-family="sans-serif">Electrical contact</text><line x1="-38.4" y1="-14.284" x2="-33.6" y2="-14.284" stroke="#7f8c3a" stroke-width="0.574" /><text x="-32.288" y="-13.366" font-size="2.624" fill="#7f8c3a" font-family="sans-serif">Screws / seals</text><line x1="-38.4" y1="-10.348" x2="-33.6" y2="-10.348" stroke="#8a94a0" stroke-width="0.574" /><text x="-32.288" y="-9.43" font-size="2.624" fill="#8a94a0" font-family="sans-serif">Datum &amp; axis</text></g></svg>
