<?xml version="1.0" encoding="UTF-8"?>
<svg xmlns="http://www.w3.org/2000/svg" viewBox="-27 -28 54 55" role="img" aria-labelledby="exakta-base-camera_side_front-title exakta-base-camera_side_front-desc"><title id="exakta-base-camera_side_front-title">Exakta mount — camera-side front view (base)</title><desc id="exakta-base-camera_side_front-desc">Exakta bayonet mount, camera-side front view. Flange focal distance 44.7 mm, nominal throat 33.8 mm. Profile exakta/base.</desc><metadata>{"mountId":"exakta","profileId":"exakta/base","view":"camera_side_front","schemaVersion":"1.3"}</metadata><g data-layer="datum-axis"><line x1="-1.075" y1="0" x2="1.075" y2="0" stroke="#8a94a0" stroke-width="0.324" fill="none" /><line x1="0" y1="-1.075" x2="0" y2="1.075" stroke="#8a94a0" stroke-width="0.324" fill="none" /><line x1="0" y1="-21.5" x2="0" y2="-22.79" stroke="#8a94a0" stroke-width="0.324" fill="none" /></g><g data-layer="camera-side-metal"><path d="M0,-21.5 A21.5,21.5 0 1 1 0,21.5 A21.5,21.5 0 1 1 0,-21.5 Z M0,-16.9 A16.9,16.9 0 1 1 0,16.9 A16.9,16.9 0 1 1 0,-16.9 Z" fill="#6b7a8f" fill-opacity="0.12" fill-rule="evenodd" /><path d="M0,-21.5 A21.5,21.5 0 1 1 0,21.5 A21.5,21.5 0 1 1 0,-21.5 Z M0,-16.9 A16.9,16.9 0 1 1 0,16.9 A16.9,16.9 0 1 1 0,-16.9 Z" stroke="#6b7a8f" stroke-width="0.324" fill="none" stroke-dasharray="4 2" /><path d="M0,-16.9 A16.9,16.9 0 1 1 0,16.9 A16.9,16.9 0 1 1 0,-16.9 Z" stroke="#2f80c4" stroke-width="0.243" fill="none" /><circle cx="13.789" cy="-13.789" r="0.9" stroke="#7f8c3a" stroke-width="0.324" fill="none" stroke-dasharray="4 2" /><circle cx="13.789" cy="13.789" r="0.9" stroke="#7f8c3a" stroke-width="0.324" fill="none" stroke-dasharray="4 2" /><circle cx="-13.789" cy="13.789" r="0.9" stroke="#7f8c3a" stroke-width="0.324" fill="none" stroke-dasharray="4 2" /><circle cx="-13.789" cy="-13.789" r="0.9" stroke="#7f8c3a" stroke-width="0.324" fill="none" stroke-dasharray="4 2" /></g><g data-layer="camera-side-core-interface"><path d="M0,-19.85 L-1.343,-21.959 L1.343,-21.959 Z" fill="#e8853a" fill-opacity="0.12" /><path d="M0,-19.85 L-1.343,-21.959 L1.343,-21.959 Z" stroke="#e8853a" stroke-width="0.324" fill="none" stroke-dasharray="0.6 1.6" /><path d="M-4.941,-16.162 L-5.672,-18.552 A19.4,19.4 0 0 1 5.672,-18.552 L4.941,-16.162 A16.9,16.9 0 0 0 -4.941,-16.162 Z" fill="#2a9d8f" fill-opacity="0.12" /><path d="M-4.941,-16.162 L-5.672,-18.552 A19.4,19.4 0 0 1 5.672,-18.552 L4.941,-16.162 A16.9,16.9 0 0 0 -4.941,-16.162 Z" stroke="#2a9d8f" stroke-width="0.324" fill="none" stroke-dasharray="4 2" /><path d="M16.467,3.802 L18.903,4.364 A19.4,19.4 0 0 1 13.231,14.188 L11.526,12.36 A16.9,16.9 0 0 0 16.467,3.802 Z" fill="#2a9d8f" fill-opacity="0.12" /><path d="M16.467,3.802 L18.903,4.364 A19.4,19.4 0 0 1 13.231,14.188 L11.526,12.36 A16.9,16.9 0 0 0 16.467,3.802 Z" stroke="#2a9d8f" stroke-width="0.324" fill="none" stroke-dasharray="4 2" /><path d="M-11.526,12.36 L-13.231,14.188 A19.4,19.4 0 0 1 -18.903,4.364 L-16.467,3.802 A16.9,16.9 0 0 0 -11.526,12.36 Z" fill="#2a9d8f" fill-opacity="0.12" /><path d="M-11.526,12.36 L-13.231,14.188 A19.4,19.4 0 0 1 -18.903,4.364 L-16.467,3.802 A16.9,16.9 0 0 0 -11.526,12.36 Z" stroke="#2a9d8f" stroke-width="0.324" fill="none" stroke-dasharray="4 2" /><circle cx="-15.502" cy="-8.95" r="0.753" fill="#d1495b" fill-opacity="0.12" /><circle cx="-15.502" cy="-8.95" r="0.753" stroke="#d1495b" stroke-width="0.324" fill="none" stroke-dasharray="0.6 1.6" /></g><g data-layer="camera-side-variant-mechanical"><circle cx="-17.321" cy="-10" r="0.8" stroke="#b5651d" stroke-width="0.324" fill="none" stroke-dasharray="4 2" /></g><g aria-hidden="true"><line x1="-25.92" y1="-25.25" x2="-21.92" y2="-25.25" stroke="#2f80c4" stroke-width="0.4" /><text x="-20.92" y="-24.55" font-size="2" fill="#2f80c4" font-family="sans-serif">Throat / opening</text><line x1="-25.92" y1="-22.25" x2="-21.92" y2="-22.25" stroke="#6b7a8f" stroke-width="0.4" /><text x="-20.92" y="-21.55" font-size="2" fill="#6b7a8f" font-family="sans-serif">Mount ring</text><line x1="-25.92" y1="-19.25" x2="-21.92" y2="-19.25" stroke="#2a9d8f" stroke-width="0.4" /><text x="-20.92" y="-18.55" font-size="2" fill="#2a9d8f" font-family="sans-serif">Bayonet lug / slot</text><line x1="-25.92" y1="-16.25" x2="-21.92" y2="-16.25" stroke="#d1495b" stroke-width="0.4" /><text x="-20.92" y="-15.55" font-size="2" fill="#d1495b" font-family="sans-serif">Lock pin / notch</text><line x1="-25.92" y1="-13.25" x2="-21.92" y2="-13.25" stroke="#e8853a" stroke-width="0.4" /><text x="-20.92" y="-12.55" font-size="2" fill="#e8853a" font-family="sans-serif">Index mark</text><line x1="-25.92" y1="-10.25" x2="-21.92" y2="-10.25" stroke="#b5651d" stroke-width="0.4" /><text x="-20.92" y="-9.55" font-size="2" fill="#b5651d" font-family="sans-serif">Mechanical coupling</text><line x1="-25.92" y1="-7.25" x2="-21.92" y2="-7.25" stroke="#7f8c3a" stroke-width="0.4" /><text x="-20.92" y="-6.55" font-size="2" fill="#7f8c3a" font-family="sans-serif">Screws / seals</text><line x1="-25.92" y1="-4.25" x2="-21.92" y2="-4.25" stroke="#8a94a0" stroke-width="0.4" /><text x="-20.92" y="-3.55" font-size="2" fill="#8a94a0" font-family="sans-serif">Datum &amp; axis</text></g></svg>
