<?xml version="1.0" encoding="UTF-8"?>
<svg xmlns="http://www.w3.org/2000/svg" viewBox="-26 -27 52 53" role="img" aria-labelledby="exakta-base-lens_side_rear-title exakta-base-lens_side_rear-desc"><title id="exakta-base-lens_side_rear-title">Exakta mount — lens-side rear view (base)</title><desc id="exakta-base-lens_side_rear-desc">Exakta bayonet mount, lens-side rear view. Flange focal distance 44.7 mm, nominal throat 33.8 mm. Profile exakta/base.</desc><metadata>{"mountId":"exakta","profileId":"exakta/base","view":"lens_side_rear","schemaVersion":"1.3"}</metadata><g data-layer="datum-axis"><line x1="-1.025" y1="0" x2="1.025" y2="0" stroke="#8a94a0" stroke-width="0.312" fill="none" /><line x1="0" y1="-1.025" x2="0" y2="1.025" stroke="#8a94a0" stroke-width="0.312" fill="none" /><line x1="0" y1="-20.5" x2="0" y2="-21.73" stroke="#8a94a0" stroke-width="0.312" fill="none" /></g><g data-layer="lens-side-metal"><path d="M0,-20.5 A20.5,20.5 0 1 1 0,20.5 A20.5,20.5 0 1 1 0,-20.5 Z M0,-15.9 A15.9,15.9 0 1 1 0,15.9 A15.9,15.9 0 1 1 0,-15.9 Z" fill="#6b7a8f" fill-opacity="0.12" fill-rule="evenodd" /><path d="M0,-20.5 A20.5,20.5 0 1 1 0,20.5 A20.5,20.5 0 1 1 0,-20.5 Z M0,-15.9 A15.9,15.9 0 1 1 0,15.9 A15.9,15.9 0 1 1 0,-15.9 Z" stroke="#6b7a8f" stroke-width="0.312" fill="none" stroke-dasharray="4 2" /><path d="M0,-15.9 A15.9,15.9 0 1 1 0,15.9 A15.9,15.9 0 1 1 0,-15.9 Z" stroke="#2f80c4" stroke-width="0.312" fill="none" stroke-dasharray="4 2" /></g><g data-layer="lens-side-core-interface"><path d="M0,-18.95 L-1.282,-20.961 L1.282,-20.961 Z" fill="#e8853a" fill-opacity="0.12" /><path d="M0,-18.95 L-1.282,-20.961 L1.282,-20.961 Z" stroke="#e8853a" stroke-width="0.312" fill="none" stroke-dasharray="0.6 1.6" /><path d="M-4.941,-16.162 L-5.672,-18.552 A19.4,19.4 0 0 1 5.672,-18.552 L4.941,-16.162 A16.9,16.9 0 0 0 -4.941,-16.162 Z" fill="#2a9d8f" fill-opacity="0.12" /><path d="M-4.941,-16.162 L-5.672,-18.552 A19.4,19.4 0 0 1 5.672,-18.552 L4.941,-16.162 A16.9,16.9 0 0 0 -4.941,-16.162 Z" stroke="#2a9d8f" stroke-width="0.312" fill="none" stroke-dasharray="4 2" /><circle cx="15.502" cy="-8.95" r="0.718" fill="#d1495b" fill-opacity="0.12" /><circle cx="15.502" cy="-8.95" r="0.718" stroke="#d1495b" stroke-width="0.312" fill="none" stroke-dasharray="0.6 1.6" /><path d="M16.467,3.802 L18.903,4.364 A19.4,19.4 0 0 1 13.231,14.188 L11.526,12.36 A16.9,16.9 0 0 0 16.467,3.802 Z" fill="#2a9d8f" fill-opacity="0.12" /><path d="M16.467,3.802 L18.903,4.364 A19.4,19.4 0 0 1 13.231,14.188 L11.526,12.36 A16.9,16.9 0 0 0 16.467,3.802 Z" stroke="#2a9d8f" stroke-width="0.312" fill="none" stroke-dasharray="4 2" /><path d="M-11.526,12.36 L-13.231,14.188 A19.4,19.4 0 0 1 -18.903,4.364 L-16.467,3.802 A16.9,16.9 0 0 0 -11.526,12.36 Z" fill="#2a9d8f" fill-opacity="0.12" /><path d="M-11.526,12.36 L-13.231,14.188 A19.4,19.4 0 0 1 -18.903,4.364 L-16.467,3.802 A16.9,16.9 0 0 0 -11.526,12.36 Z" stroke="#2a9d8f" stroke-width="0.312" fill="none" stroke-dasharray="4 2" /></g><g data-layer="lens-side-variant-mechanical"><circle cx="15.556" cy="-15.556" r="0.8" stroke="#b5651d" stroke-width="0.312" fill="none" stroke-dasharray="4 2" /></g><g aria-hidden="true"><line x1="-24.96" y1="-24.35" x2="-20.96" y2="-24.35" stroke="#2f80c4" stroke-width="0.4" /><text x="-19.96" y="-23.65" font-size="2" fill="#2f80c4" font-family="sans-serif">Throat / opening</text><line x1="-24.96" y1="-21.35" x2="-20.96" y2="-21.35" stroke="#6b7a8f" stroke-width="0.4" /><text x="-19.96" y="-20.65" font-size="2" fill="#6b7a8f" font-family="sans-serif">Mount ring</text><line x1="-24.96" y1="-18.35" x2="-20.96" y2="-18.35" stroke="#2a9d8f" stroke-width="0.4" /><text x="-19.96" y="-17.65" font-size="2" fill="#2a9d8f" font-family="sans-serif">Bayonet lug / slot</text><line x1="-24.96" y1="-15.35" x2="-20.96" y2="-15.35" stroke="#d1495b" stroke-width="0.4" /><text x="-19.96" y="-14.65" font-size="2" fill="#d1495b" font-family="sans-serif">Lock pin / notch</text><line x1="-24.96" y1="-12.35" x2="-20.96" y2="-12.35" stroke="#e8853a" stroke-width="0.4" /><text x="-19.96" y="-11.65" font-size="2" fill="#e8853a" font-family="sans-serif">Index mark</text><line x1="-24.96" y1="-9.35" x2="-20.96" y2="-9.35" stroke="#b5651d" stroke-width="0.4" /><text x="-19.96" y="-8.65" font-size="2" fill="#b5651d" font-family="sans-serif">Mechanical coupling</text><line x1="-24.96" y1="-6.35" x2="-20.96" y2="-6.35" stroke="#8a94a0" stroke-width="0.4" /><text x="-19.96" y="-5.65" font-size="2" fill="#8a94a0" font-family="sans-serif">Datum &amp; axis</text></g></svg>
