<?xml version="1.0" encoding="UTF-8"?>
<svg xmlns="http://www.w3.org/2000/svg" viewBox="-31 -32 62 63" role="img" aria-labelledby="four-thirds-base-camera_side_front-title four-thirds-base-camera_side_front-desc"><title id="four-thirds-base-camera_side_front-title">Four Thirds mount — camera-side front view (base)</title><desc id="four-thirds-base-camera_side_front-desc">Four Thirds bayonet mount, camera-side front view. Flange focal distance 38.67 mm, nominal throat 44 mm. Profile four-thirds/base.</desc><metadata>{"mountId":"four-thirds","profileId":"four-thirds/base","view":"camera_side_front","schemaVersion":"1.3"}</metadata><g data-layer="datum-axis"><line x1="-1.25" y1="0" x2="1.25" y2="0" stroke="#8a94a0" stroke-width="0.372" fill="none" /><line x1="0" y1="-1.25" x2="0" y2="1.25" stroke="#8a94a0" stroke-width="0.372" fill="none" /><line x1="0" y1="-25" x2="0" y2="-26.5" stroke="#8a94a0" stroke-width="0.372" fill="none" /></g><g data-layer="camera-side-metal"><path d="M0,-25 A25,25 0 1 1 0,25 A25,25 0 1 1 0,-25 Z M0,-22 A22,22 0 1 1 0,22 A22,22 0 1 1 0,-22 Z" fill="#6b7a8f" fill-opacity="0.12" fill-rule="evenodd" /><path d="M0,-25 A25,25 0 1 1 0,25 A25,25 0 1 1 0,-25 Z M0,-22 A22,22 0 1 1 0,22 A22,22 0 1 1 0,-22 Z" stroke="#6b7a8f" stroke-width="0.372" fill="none" stroke-dasharray="4 2" /><path d="M0,-22 A22,22 0 1 1 0,22 A22,22 0 1 1 0,-22 Z" stroke="#2f80c4" stroke-width="0.279" fill="none" /><circle cx="16.263" cy="-16.263" r="0.9" stroke="#7f8c3a" stroke-width="0.372" fill="none" stroke-dasharray="4 2" /><circle cx="16.263" cy="16.263" r="0.9" stroke="#7f8c3a" stroke-width="0.372" fill="none" stroke-dasharray="4 2" /><circle cx="-16.263" cy="16.263" r="0.9" stroke="#7f8c3a" stroke-width="0.372" fill="none" stroke-dasharray="4 2" /><circle cx="-16.263" cy="-16.263" r="0.9" stroke="#7f8c3a" stroke-width="0.372" fill="none" stroke-dasharray="4 2" /></g><g data-layer="camera-side-core-interface"><path d="M0,-23 L-1.557,-25.452 L1.557,-25.452 Z" fill="#e8853a" fill-opacity="0.12" /><path d="M0,-23 L-1.557,-25.452 L1.557,-25.452 Z" stroke="#e8853a" stroke-width="0.372" fill="none" stroke-dasharray="0.6 1.6" /><path d="M4.198,-21.596 L4.675,-24.05 A24.5,24.5 0 0 1 18.49,-16.073 L16.604,-14.433 A22,22 0 0 0 4.198,-21.596 Z" fill="#2a9d8f" fill-opacity="0.12" /><path d="M4.198,-21.596 L4.675,-24.05 A24.5,24.5 0 0 1 18.49,-16.073 L16.604,-14.433 A22,22 0 0 0 4.198,-21.596 Z" stroke="#2a9d8f" stroke-width="0.372" fill="none" stroke-dasharray="4 2" /><path d="M16.604,14.433 L18.49,16.073 A24.5,24.5 0 0 1 4.675,24.05 L4.198,21.596 A22,22 0 0 0 16.604,14.433 Z" fill="#2a9d8f" fill-opacity="0.12" /><path d="M16.604,14.433 L18.49,16.073 A24.5,24.5 0 0 1 4.675,24.05 L4.198,21.596 A22,22 0 0 0 16.604,14.433 Z" stroke="#2a9d8f" stroke-width="0.372" fill="none" stroke-dasharray="4 2" /><circle cx="-23" cy="0" r="0.875" fill="#d1495b" fill-opacity="0.12" /><circle cx="-23" cy="0" r="0.875" stroke="#d1495b" stroke-width="0.372" fill="none" stroke-dasharray="0.6 1.6" /><path d="M-21.97,-1.151 L-24.466,-1.282 A24.5,24.5 0 0 1 -18.49,-16.073 L-16.604,-14.433 A22,22 0 0 0 -21.97,-1.151 Z" fill="#2a9d8f" fill-opacity="0.12" /><path d="M-21.97,-1.151 L-24.466,-1.282 A24.5,24.5 0 0 1 -18.49,-16.073 L-16.604,-14.433 A22,22 0 0 0 -21.97,-1.151 Z" stroke="#2a9d8f" stroke-width="0.372" fill="none" stroke-dasharray="4 2" /></g><g data-layer="camera-side-variant-electrical"><path d="M9.819,15.797 L11.297,18.175 A21.4,21.4 0 0 1 10.092,18.871 L8.772,16.402 A18.6,18.6 0 0 0 9.819,15.797 Z" fill="#8a5cd1" fill-opacity="0.12" /><path d="M9.819,15.797 L11.297,18.175 A21.4,21.4 0 0 1 10.092,18.871 L8.772,16.402 A18.6,18.6 0 0 0 9.819,15.797 Z" stroke="#8a5cd1" stroke-width="0.372" fill="none" stroke-dasharray="4 2" /><path d="M7.673,16.944 L8.828,19.494 A21.4,21.4 0 0 1 7.543,20.027 L6.556,17.406 A18.6,18.6 0 0 0 7.673,16.944 Z" fill="#8a5cd1" fill-opacity="0.12" /><path d="M7.673,16.944 L8.828,19.494 A21.4,21.4 0 0 1 7.543,20.027 L6.556,17.406 A18.6,18.6 0 0 0 7.673,16.944 Z" stroke="#8a5cd1" stroke-width="0.372" fill="none" stroke-dasharray="4 2" /><path d="M5.395,17.8 L6.207,20.48 A21.4,21.4 0 0 1 4.864,20.84 L4.228,18.113 A18.6,18.6 0 0 0 5.395,17.8 Z" fill="#8a5cd1" fill-opacity="0.12" /><path d="M5.395,17.8 L6.207,20.48 A21.4,21.4 0 0 1 4.864,20.84 L4.228,18.113 A18.6,18.6 0 0 0 5.395,17.8 Z" stroke="#8a5cd1" stroke-width="0.372" fill="none" stroke-dasharray="4 2" /><path d="M3.026,18.352 L3.481,21.115 A21.4,21.4 0 0 1 2.102,21.296 L1.827,18.51 A18.6,18.6 0 0 0 3.026,18.352 Z" fill="#8a5cd1" fill-opacity="0.12" /><path d="M3.026,18.352 L3.481,21.115 A21.4,21.4 0 0 1 2.102,21.296 L1.827,18.51 A18.6,18.6 0 0 0 3.026,18.352 Z" stroke="#8a5cd1" stroke-width="0.372" fill="none" stroke-dasharray="4 2" /><path d="M0.604,18.59 L0.695,21.389 A21.4,21.4 0 0 1 -0.695,21.389 L-0.604,18.59 A18.6,18.6 0 0 0 0.604,18.59 Z" fill="#8a5cd1" fill-opacity="0.12" /><path d="M0.604,18.59 L0.695,21.389 A21.4,21.4 0 0 1 -0.695,21.389 L-0.604,18.59 A18.6,18.6 0 0 0 0.604,18.59 Z" stroke="#8a5cd1" stroke-width="0.372" fill="none" stroke-dasharray="4 2" /><path d="M-1.827,18.51 L-2.102,21.296 A21.4,21.4 0 0 1 -3.481,21.115 L-3.026,18.352 A18.6,18.6 0 0 0 -1.827,18.51 Z" fill="#8a5cd1" fill-opacity="0.12" /><path d="M-1.827,18.51 L-2.102,21.296 A21.4,21.4 0 0 1 -3.481,21.115 L-3.026,18.352 A18.6,18.6 0 0 0 -1.827,18.51 Z" stroke="#8a5cd1" stroke-width="0.372" fill="none" stroke-dasharray="4 2" /><path d="M-4.228,18.113 L-4.864,20.84 A21.4,21.4 0 0 1 -6.207,20.48 L-5.395,17.8 A18.6,18.6 0 0 0 -4.228,18.113 Z" fill="#8a5cd1" fill-opacity="0.12" /><path d="M-4.228,18.113 L-4.864,20.84 A21.4,21.4 0 0 1 -6.207,20.48 L-5.395,17.8 A18.6,18.6 0 0 0 -4.228,18.113 Z" stroke="#8a5cd1" stroke-width="0.372" fill="none" stroke-dasharray="4 2" /><path d="M-6.556,17.406 L-7.543,20.027 A21.4,21.4 0 0 1 -8.828,19.494 L-7.673,16.944 A18.6,18.6 0 0 0 -6.556,17.406 Z" fill="#8a5cd1" fill-opacity="0.12" /><path d="M-6.556,17.406 L-7.543,20.027 A21.4,21.4 0 0 1 -8.828,19.494 L-7.673,16.944 A18.6,18.6 0 0 0 -6.556,17.406 Z" stroke="#8a5cd1" stroke-width="0.372" fill="none" stroke-dasharray="4 2" /><path d="M-8.772,16.402 L-10.092,18.871 A21.4,21.4 0 0 1 -11.297,18.175 L-9.819,15.797 A18.6,18.6 0 0 0 -8.772,16.402 Z" fill="#8a5cd1" fill-opacity="0.12" /><path d="M-8.772,16.402 L-10.092,18.871 A21.4,21.4 0 0 1 -11.297,18.175 L-9.819,15.797 A18.6,18.6 0 0 0 -8.772,16.402 Z" stroke="#8a5cd1" stroke-width="0.372" fill="none" stroke-dasharray="4 2" /></g><g aria-hidden="true"><line x1="-29.76" y1="-28.85" x2="-25.76" y2="-28.85" stroke="#2f80c4" stroke-width="0.441" /><text x="-24.752" y="-28.144" font-size="2.016" fill="#2f80c4" font-family="sans-serif">Throat / opening</text><line x1="-29.76" y1="-25.826" x2="-25.76" y2="-25.826" stroke="#6b7a8f" stroke-width="0.441" /><text x="-24.752" y="-25.12" font-size="2.016" fill="#6b7a8f" font-family="sans-serif">Mount ring</text><line x1="-29.76" y1="-22.802" x2="-25.76" y2="-22.802" stroke="#2a9d8f" stroke-width="0.441" /><text x="-24.752" y="-22.096" font-size="2.016" fill="#2a9d8f" font-family="sans-serif">Bayonet lug / slot</text><line x1="-29.76" y1="-19.778" x2="-25.76" y2="-19.778" stroke="#d1495b" stroke-width="0.441" /><text x="-24.752" y="-19.072" font-size="2.016" fill="#d1495b" font-family="sans-serif">Lock pin / notch</text><line x1="-29.76" y1="-16.754" x2="-25.76" y2="-16.754" stroke="#e8853a" stroke-width="0.441" /><text x="-24.752" y="-16.048" font-size="2.016" fill="#e8853a" font-family="sans-serif">Index mark</text><line x1="-29.76" y1="-13.73" x2="-25.76" y2="-13.73" stroke="#8a5cd1" stroke-width="0.441" /><text x="-24.752" y="-13.024" font-size="2.016" fill="#8a5cd1" font-family="sans-serif">Electrical contact</text><line x1="-29.76" y1="-10.706" x2="-25.76" y2="-10.706" stroke="#7f8c3a" stroke-width="0.441" /><text x="-24.752" y="-10" font-size="2.016" fill="#7f8c3a" font-family="sans-serif">Screws / seals</text><line x1="-29.76" y1="-7.682" x2="-25.76" y2="-7.682" stroke="#8a94a0" stroke-width="0.441" /><text x="-24.752" y="-6.976" font-size="2.016" fill="#8a94a0" font-family="sans-serif">Datum &amp; axis</text></g></svg>
