<?xml version="1.0" encoding="UTF-8"?>
<svg xmlns="http://www.w3.org/2000/svg" viewBox="-47 -49 94 96" role="img" aria-labelledby="fujifilm-g-base-lens_side_rear-title fujifilm-g-base-lens_side_rear-desc"><title id="fujifilm-g-base-lens_side_rear-title">Fujifilm G mount — lens-side rear view (base)</title><desc id="fujifilm-g-base-lens_side_rear-desc">Fujifilm G bayonet mount, lens-side rear view. Flange focal distance 26.7 mm, nominal throat 65 mm. Profile fujifilm-g/base.</desc><metadata>{"mountId":"fujifilm-g","profileId":"fujifilm-g/base","view":"lens_side_rear","schemaVersion":"1.3"}</metadata><g data-layer="datum-axis"><line x1="-1.9" y1="0" x2="1.9" y2="0" stroke="#8a94a0" stroke-width="0.564" fill="none" /><line x1="0" y1="-1.9" x2="0" y2="1.9" stroke="#8a94a0" stroke-width="0.564" fill="none" /><line x1="0" y1="-38" x2="0" y2="-40.28" stroke="#8a94a0" stroke-width="0.564" fill="none" /></g><g data-layer="lens-side-metal"><path d="M0,-38 A38,38 0 1 1 0,38 A38,38 0 1 1 0,-38 Z M0,-31.5 A31.5,31.5 0 1 1 0,31.5 A31.5,31.5 0 1 1 0,-31.5 Z" fill="#6b7a8f" fill-opacity="0.12" fill-rule="evenodd" /><path d="M0,-38 A38,38 0 1 1 0,38 A38,38 0 1 1 0,-38 Z M0,-31.5 A31.5,31.5 0 1 1 0,31.5 A31.5,31.5 0 1 1 0,-31.5 Z" stroke="#6b7a8f" stroke-width="0.564" fill="none" stroke-dasharray="4 2" /><path d="M0,-31.5 A31.5,31.5 0 1 1 0,31.5 A31.5,31.5 0 1 1 0,-31.5 Z" stroke="#2f80c4" stroke-width="0.564" fill="none" stroke-dasharray="4 2" /></g><g data-layer="lens-side-core-interface"><path d="M0,-34.7 L-2.35,-38.428 L2.35,-38.428 Z" fill="#e8853a" fill-opacity="0.12" /><path d="M0,-34.7 L-2.35,-38.428 L2.35,-38.428 Z" stroke="#e8853a" stroke-width="0.564" fill="none" stroke-dasharray="0.6 1.6" /><path d="M24.896,-20.891 L27.578,-23.14 A36,36 0 0 1 36,0 L32.5,0 A32.5,32.5 0 0 0 24.896,-20.891 Z" fill="#2a9d8f" fill-opacity="0.12" /><path d="M24.896,-20.891 L27.578,-23.14 A36,36 0 0 1 36,0 L32.5,0 A32.5,32.5 0 0 0 24.896,-20.891 Z" stroke="#2a9d8f" stroke-width="0.564" fill="none" stroke-dasharray="4 2" /><path d="M-5.644,32.006 L-6.251,35.453 A36,36 0 0 1 -27.578,23.14 L-24.896,20.891 A32.5,32.5 0 0 0 -5.644,32.006 Z" fill="#2a9d8f" fill-opacity="0.12" /><path d="M-5.644,32.006 L-6.251,35.453 A36,36 0 0 1 -27.578,23.14 L-24.896,20.891 A32.5,32.5 0 0 0 -5.644,32.006 Z" stroke="#2a9d8f" stroke-width="0.564" fill="none" stroke-dasharray="4 2" /><circle cx="-23.688" cy="23.688" r="1.33" fill="#d1495b" fill-opacity="0.12" /><circle cx="-23.688" cy="23.688" r="1.33" stroke="#d1495b" stroke-width="0.564" fill="none" stroke-dasharray="0.6 1.6" /><path d="M-24.896,-20.891 L-27.578,-23.14 A36,36 0 0 1 -6.251,-35.453 L-5.644,-32.006 A32.5,32.5 0 0 0 -24.896,-20.891 Z" fill="#2a9d8f" fill-opacity="0.12" /><path d="M-24.896,-20.891 L-27.578,-23.14 A36,36 0 0 1 -6.251,-35.453 L-5.644,-32.006 A32.5,32.5 0 0 0 -24.896,-20.891 Z" stroke="#2a9d8f" stroke-width="0.564" fill="none" stroke-dasharray="4 2" /></g><g data-layer="lens-side-variant-electrical"><path d="M-11.439,26.104 L-12.643,28.852 A31.5,31.5 0 0 1 -13.975,28.23 L-12.644,25.542 A28.5,28.5 0 0 0 -11.439,26.104 Z" fill="#8a5cd1" fill-opacity="0.12" /><path d="M-11.439,26.104 L-12.643,28.852 A31.5,31.5 0 0 1 -13.975,28.23 L-12.644,25.542 A28.5,28.5 0 0 0 -11.439,26.104 Z" stroke="#8a5cd1" stroke-width="0.564" fill="none" stroke-dasharray="4 2" /><path d="M-9.12,27.001 L-10.08,29.844 A31.5,31.5 0 0 1 -11.461,29.341 L-10.37,26.547 A28.5,28.5 0 0 0 -9.12,27.001 Z" fill="#8a5cd1" fill-opacity="0.12" /><path d="M-9.12,27.001 L-10.08,29.844 A31.5,31.5 0 0 1 -11.461,29.341 L-10.37,26.547 A28.5,28.5 0 0 0 -9.12,27.001 Z" stroke="#8a5cd1" stroke-width="0.564" fill="none" stroke-dasharray="4 2" /><path d="M-6.732,27.693 L-7.441,30.609 A31.5,31.5 0 0 1 -8.86,30.228 L-8.017,27.349 A28.5,28.5 0 0 0 -6.732,27.693 Z" fill="#8a5cd1" fill-opacity="0.12" /><path d="M-6.732,27.693 L-7.441,30.609 A31.5,31.5 0 0 1 -8.86,30.228 L-8.017,27.349 A28.5,28.5 0 0 0 -6.732,27.693 Z" stroke="#8a5cd1" stroke-width="0.564" fill="none" stroke-dasharray="4 2" /><path d="M-4.293,28.175 L-4.745,31.141 A31.5,31.5 0 0 1 -6.192,30.885 L-5.602,27.944 A28.5,28.5 0 0 0 -4.293,28.175 Z" fill="#8a5cd1" fill-opacity="0.12" /><path d="M-4.293,28.175 L-4.745,31.141 A31.5,31.5 0 0 1 -6.192,30.885 L-5.602,27.944 A28.5,28.5 0 0 0 -4.293,28.175 Z" stroke="#8a5cd1" stroke-width="0.564" fill="none" stroke-dasharray="4 2" /><path d="M-1.821,28.442 L-2.013,31.436 A31.5,31.5 0 0 1 -3.477,31.308 L-3.146,28.326 A28.5,28.5 0 0 0 -1.821,28.442 Z" fill="#8a5cd1" fill-opacity="0.12" /><path d="M-1.821,28.442 L-2.013,31.436 A31.5,31.5 0 0 1 -3.477,31.308 L-3.146,28.326 A28.5,28.5 0 0 0 -1.821,28.442 Z" stroke="#8a5cd1" stroke-width="0.564" fill="none" stroke-dasharray="4 2" /><path d="M0.665,28.492 L0.735,31.491 A31.5,31.5 0 0 1 -0.735,31.491 L-0.665,28.492 A28.5,28.5 0 0 0 0.665,28.492 Z" fill="#8a5cd1" fill-opacity="0.12" /><path d="M0.665,28.492 L0.735,31.491 A31.5,31.5 0 0 1 -0.735,31.491 L-0.665,28.492 A28.5,28.5 0 0 0 0.665,28.492 Z" stroke="#8a5cd1" stroke-width="0.564" fill="none" stroke-dasharray="4 2" /><path d="M3.146,28.326 L3.477,31.308 A31.5,31.5 0 0 1 2.013,31.436 L1.821,28.442 A28.5,28.5 0 0 0 3.146,28.326 Z" fill="#8a5cd1" fill-opacity="0.12" /><path d="M3.146,28.326 L3.477,31.308 A31.5,31.5 0 0 1 2.013,31.436 L1.821,28.442 A28.5,28.5 0 0 0 3.146,28.326 Z" stroke="#8a5cd1" stroke-width="0.564" fill="none" stroke-dasharray="4 2" /><path d="M5.602,27.944 L6.192,30.885 A31.5,31.5 0 0 1 4.745,31.141 L4.293,28.175 A28.5,28.5 0 0 0 5.602,27.944 Z" fill="#8a5cd1" fill-opacity="0.12" /><path d="M5.602,27.944 L6.192,30.885 A31.5,31.5 0 0 1 4.745,31.141 L4.293,28.175 A28.5,28.5 0 0 0 5.602,27.944 Z" stroke="#8a5cd1" stroke-width="0.564" fill="none" stroke-dasharray="4 2" /><path d="M8.017,27.349 L8.86,30.228 A31.5,31.5 0 0 1 7.441,30.609 L6.732,27.693 A28.5,28.5 0 0 0 8.017,27.349 Z" fill="#8a5cd1" fill-opacity="0.12" /><path d="M8.017,27.349 L8.86,30.228 A31.5,31.5 0 0 1 7.441,30.609 L6.732,27.693 A28.5,28.5 0 0 0 8.017,27.349 Z" stroke="#8a5cd1" stroke-width="0.564" fill="none" stroke-dasharray="4 2" /><path d="M10.37,26.547 L11.461,29.341 A31.5,31.5 0 0 1 10.08,29.844 L9.12,27.001 A28.5,28.5 0 0 0 10.37,26.547 Z" fill="#8a5cd1" fill-opacity="0.12" /><path d="M10.37,26.547 L11.461,29.341 A31.5,31.5 0 0 1 10.08,29.844 L9.12,27.001 A28.5,28.5 0 0 0 10.37,26.547 Z" stroke="#8a5cd1" stroke-width="0.564" fill="none" stroke-dasharray="4 2" /><path d="M12.644,25.542 L13.975,28.23 A31.5,31.5 0 0 1 12.643,28.852 L11.439,26.104 A28.5,28.5 0 0 0 12.644,25.542 Z" fill="#8a5cd1" fill-opacity="0.12" /><path d="M12.644,25.542 L13.975,28.23 A31.5,31.5 0 0 1 12.643,28.852 L11.439,26.104 A28.5,28.5 0 0 0 12.644,25.542 Z" stroke="#8a5cd1" stroke-width="0.564" fill="none" stroke-dasharray="4 2" /><path d="M14.822,24.343 L16.382,26.905 A31.5,31.5 0 0 1 15.109,27.64 L13.67,25.007 A28.5,28.5 0 0 0 14.822,24.343 Z" fill="#8a5cd1" fill-opacity="0.12" /><path d="M14.822,24.343 L16.382,26.905 A31.5,31.5 0 0 1 15.109,27.64 L13.67,25.007 A28.5,28.5 0 0 0 14.822,24.343 Z" stroke="#8a5cd1" stroke-width="0.564" fill="none" stroke-dasharray="4 2" /></g><g aria-hidden="true"><line x1="-45.12" y1="-44.2" x2="-39.48" y2="-44.2" stroke="#2f80c4" stroke-width="0.672" /><text x="-37.944" y="-43.125" font-size="3.072" fill="#2f80c4" font-family="sans-serif">Throat / opening</text><line x1="-45.12" y1="-39.592" x2="-39.48" y2="-39.592" stroke="#6b7a8f" stroke-width="0.672" /><text x="-37.944" y="-38.517" font-size="3.072" fill="#6b7a8f" font-family="sans-serif">Mount ring</text><line x1="-45.12" y1="-34.984" x2="-39.48" y2="-34.984" stroke="#2a9d8f" stroke-width="0.672" /><text x="-37.944" y="-33.909" font-size="3.072" fill="#2a9d8f" font-family="sans-serif">Bayonet lug / slot</text><line x1="-45.12" y1="-30.376" x2="-39.48" y2="-30.376" stroke="#d1495b" stroke-width="0.672" /><text x="-37.944" y="-29.301" font-size="3.072" fill="#d1495b" font-family="sans-serif">Lock pin / notch</text><line x1="-45.12" y1="-25.768" x2="-39.48" y2="-25.768" stroke="#e8853a" stroke-width="0.672" /><text x="-37.944" y="-24.693" font-size="3.072" fill="#e8853a" font-family="sans-serif">Index mark</text><line x1="-45.12" y1="-21.16" x2="-39.48" y2="-21.16" stroke="#8a5cd1" stroke-width="0.672" /><text x="-37.944" y="-20.085" font-size="3.072" fill="#8a5cd1" font-family="sans-serif">Electrical contact</text><line x1="-45.12" y1="-16.552" x2="-39.48" y2="-16.552" stroke="#8a94a0" stroke-width="0.672" /><text x="-37.944" y="-15.477" font-size="3.072" fill="#8a94a0" font-family="sans-serif">Datum &amp; axis</text></g></svg>
