<?xml version="1.0" encoding="UTF-8"?>
<svg xmlns="http://www.w3.org/2000/svg" viewBox="-47 -49 94 96" role="img" aria-labelledby="hasselblad-v-base-lens_side_rear-title hasselblad-v-base-lens_side_rear-desc"><title id="hasselblad-v-base-lens_side_rear-title">Hasselblad V mount — lens-side rear view (base)</title><desc id="hasselblad-v-base-lens_side_rear-desc">Hasselblad V bayonet mount, lens-side rear view. Flange focal distance 74.9 mm, nominal throat 69 mm. Profile hasselblad-v/base.</desc><metadata>{"mountId":"hasselblad-v","profileId":"hasselblad-v/base","view":"lens_side_rear","schemaVersion":"1.3"}</metadata><g data-layer="datum-axis"><line x1="-1.9" y1="0" x2="1.9" y2="0" stroke="#8a94a0" stroke-width="0.564" fill="none" /><line x1="0" y1="-1.9" x2="0" y2="1.9" stroke="#8a94a0" stroke-width="0.564" fill="none" /><line x1="0" y1="-38" x2="0" y2="-40.28" stroke="#8a94a0" stroke-width="0.564" fill="none" /></g><g data-layer="lens-side-metal"><path d="M0,-38 A38,38 0 1 1 0,38 A38,38 0 1 1 0,-38 Z M0,-33.5 A33.5,33.5 0 1 1 0,33.5 A33.5,33.5 0 1 1 0,-33.5 Z" fill="#6b7a8f" fill-opacity="0.12" fill-rule="evenodd" /><path d="M0,-38 A38,38 0 1 1 0,38 A38,38 0 1 1 0,-38 Z M0,-33.5 A33.5,33.5 0 1 1 0,33.5 A33.5,33.5 0 1 1 0,-33.5 Z" stroke="#6b7a8f" stroke-width="0.564" fill="none" stroke-dasharray="4 2" /><path d="M0,-33.5 A33.5,33.5 0 1 1 0,33.5 A33.5,33.5 0 1 1 0,-33.5 Z" stroke="#2f80c4" stroke-width="0.564" fill="none" stroke-dasharray="4 2" /></g><g data-layer="lens-side-core-interface"><path d="M0,-34.7 L-2.35,-38.428 L2.35,-38.428 Z" fill="#e8853a" fill-opacity="0.12" /><path d="M0,-34.7 L-2.35,-38.428 L2.35,-38.428 Z" stroke="#e8853a" stroke-width="0.564" fill="none" stroke-dasharray="0.6 1.6" /><path d="M-10.087,-32.993 L-10.818,-35.383 A37,37 0 0 1 10.818,-35.383 L10.087,-32.993 A34.5,34.5 0 0 0 -10.087,-32.993 Z" fill="#2a9d8f" fill-opacity="0.12" /><path d="M-10.087,-32.993 L-10.818,-35.383 A37,37 0 0 1 10.818,-35.383 L10.087,-32.993 A34.5,34.5 0 0 0 -10.087,-32.993 Z" stroke="#2a9d8f" stroke-width="0.564" fill="none" stroke-dasharray="4 2" /><circle cx="35.5" cy="0" r="1.33" fill="#d1495b" fill-opacity="0.12" /><circle cx="35.5" cy="0" r="1.33" stroke="#d1495b" stroke-width="0.564" fill="none" stroke-dasharray="0.6 1.6" /><path d="M33.616,7.761 L36.052,8.323 A37,37 0 0 1 25.234,27.06 L23.529,25.232 A34.5,34.5 0 0 0 33.616,7.761 Z" fill="#2a9d8f" fill-opacity="0.12" /><path d="M33.616,7.761 L36.052,8.323 A37,37 0 0 1 25.234,27.06 L23.529,25.232 A34.5,34.5 0 0 0 33.616,7.761 Z" stroke="#2a9d8f" stroke-width="0.564" fill="none" stroke-dasharray="4 2" /><path d="M-23.529,25.232 L-25.234,27.06 A37,37 0 0 1 -36.052,8.323 L-33.616,7.761 A34.5,34.5 0 0 0 -23.529,25.232 Z" fill="#2a9d8f" fill-opacity="0.12" /><path d="M-23.529,25.232 L-25.234,27.06 A37,37 0 0 1 -36.052,8.323 L-33.616,7.761 A34.5,34.5 0 0 0 -23.529,25.232 Z" stroke="#2a9d8f" stroke-width="0.564" fill="none" stroke-dasharray="4 2" /></g><g data-layer="lens-side-variant-mechanical"><circle cx="21.855" cy="-26.046" r="1.14" stroke="#b5651d" stroke-width="0.564" fill="none" stroke-dasharray="4 2" /><circle cx="-19.502" cy="-27.851" r="1.14" stroke="#b5651d" stroke-width="0.564" fill="none" stroke-dasharray="4 2" /></g><g aria-hidden="true"><line x1="-45.12" y1="-44.2" x2="-39.48" y2="-44.2" stroke="#2f80c4" stroke-width="0.672" /><text x="-37.944" y="-43.125" font-size="3.072" fill="#2f80c4" font-family="sans-serif">Throat / opening</text><line x1="-45.12" y1="-39.592" x2="-39.48" y2="-39.592" stroke="#6b7a8f" stroke-width="0.672" /><text x="-37.944" y="-38.517" font-size="3.072" fill="#6b7a8f" font-family="sans-serif">Mount ring</text><line x1="-45.12" y1="-34.984" x2="-39.48" y2="-34.984" stroke="#2a9d8f" stroke-width="0.672" /><text x="-37.944" y="-33.909" font-size="3.072" fill="#2a9d8f" font-family="sans-serif">Bayonet lug / slot</text><line x1="-45.12" y1="-30.376" x2="-39.48" y2="-30.376" stroke="#d1495b" stroke-width="0.672" /><text x="-37.944" y="-29.301" font-size="3.072" fill="#d1495b" font-family="sans-serif">Lock pin / notch</text><line x1="-45.12" y1="-25.768" x2="-39.48" y2="-25.768" stroke="#e8853a" stroke-width="0.672" /><text x="-37.944" y="-24.693" font-size="3.072" fill="#e8853a" font-family="sans-serif">Index mark</text><line x1="-45.12" y1="-21.16" x2="-39.48" y2="-21.16" stroke="#b5651d" stroke-width="0.672" /><text x="-37.944" y="-20.085" font-size="3.072" fill="#b5651d" font-family="sans-serif">Mechanical coupling</text><line x1="-45.12" y1="-16.552" x2="-39.48" y2="-16.552" stroke="#8a94a0" stroke-width="0.672" /><text x="-37.944" y="-15.477" font-size="3.072" fill="#8a94a0" font-family="sans-serif">Datum &amp; axis</text></g></svg>
