<?xml version="1.0" encoding="UTF-8"?>
<svg xmlns="http://www.w3.org/2000/svg" viewBox="-48 -50 96 98" role="img" aria-labelledby="hasselblad-v-base-camera_side_front-title hasselblad-v-base-camera_side_front-desc"><title id="hasselblad-v-base-camera_side_front-title">Hasselblad V mount — camera-side front view (base)</title><desc id="hasselblad-v-base-camera_side_front-desc">Hasselblad V bayonet mount, camera-side front view. Flange focal distance 74.9 mm, nominal throat 69 mm. Profile hasselblad-v/base.</desc><metadata>{"mountId":"hasselblad-v","profileId":"hasselblad-v/base","view":"camera_side_front","schemaVersion":"1.3"}</metadata><g data-layer="datum-axis"><line x1="-1.95" y1="0" x2="1.95" y2="0" stroke="#8a94a0" stroke-width="0.576" fill="none" /><line x1="0" y1="-1.95" x2="0" y2="1.95" stroke="#8a94a0" stroke-width="0.576" fill="none" /><line x1="0" y1="-39" x2="0" y2="-41.34" stroke="#8a94a0" stroke-width="0.576" fill="none" /></g><g data-layer="camera-side-metal"><path d="M0,-39 A39,39 0 1 1 0,39 A39,39 0 1 1 0,-39 Z M0,-34.5 A34.5,34.5 0 1 1 0,34.5 A34.5,34.5 0 1 1 0,-34.5 Z" fill="#6b7a8f" fill-opacity="0.12" fill-rule="evenodd" /><path d="M0,-39 A39,39 0 1 1 0,39 A39,39 0 1 1 0,-39 Z M0,-34.5 A34.5,34.5 0 1 1 0,34.5 A34.5,34.5 0 1 1 0,-34.5 Z" stroke="#6b7a8f" stroke-width="0.576" fill="none" stroke-dasharray="4 2" /><path d="M0,-34.5 A34.5,34.5 0 1 1 0,34.5 A34.5,34.5 0 1 1 0,-34.5 Z" stroke="#2f80c4" stroke-width="0.432" fill="none" /><circle cx="26.163" cy="-26.163" r="1.25" stroke="#7f8c3a" stroke-width="0.576" fill="none" stroke-dasharray="4 2" /><circle cx="26.163" cy="26.163" r="1.25" stroke="#7f8c3a" stroke-width="0.576" fill="none" stroke-dasharray="4 2" /><circle cx="-26.163" cy="26.163" r="1.25" stroke="#7f8c3a" stroke-width="0.576" fill="none" stroke-dasharray="4 2" /><circle cx="-26.163" cy="-26.163" r="1.25" stroke="#7f8c3a" stroke-width="0.576" fill="none" stroke-dasharray="4 2" /></g><g data-layer="camera-side-core-interface"><path d="M0,-35.6 L-2.411,-39.426 L2.411,-39.426 Z" fill="#e8853a" fill-opacity="0.12" /><path d="M0,-35.6 L-2.411,-39.426 L2.411,-39.426 Z" stroke="#e8853a" stroke-width="0.576" fill="none" stroke-dasharray="0.6 1.6" /><path d="M-10.087,-32.993 L-10.818,-35.383 A37,37 0 0 1 10.818,-35.383 L10.087,-32.993 A34.5,34.5 0 0 0 -10.087,-32.993 Z" fill="#2a9d8f" fill-opacity="0.12" /><path d="M-10.087,-32.993 L-10.818,-35.383 A37,37 0 0 1 10.818,-35.383 L10.087,-32.993 A34.5,34.5 0 0 0 -10.087,-32.993 Z" stroke="#2a9d8f" stroke-width="0.576" fill="none" stroke-dasharray="4 2" /><path d="M33.616,7.761 L36.052,8.323 A37,37 0 0 1 25.234,27.06 L23.529,25.232 A34.5,34.5 0 0 0 33.616,7.761 Z" fill="#2a9d8f" fill-opacity="0.12" /><path d="M33.616,7.761 L36.052,8.323 A37,37 0 0 1 25.234,27.06 L23.529,25.232 A34.5,34.5 0 0 0 33.616,7.761 Z" stroke="#2a9d8f" stroke-width="0.576" fill="none" stroke-dasharray="4 2" /><path d="M-23.529,25.232 L-25.234,27.06 A37,37 0 0 1 -36.052,8.323 L-33.616,7.761 A34.5,34.5 0 0 0 -23.529,25.232 Z" fill="#2a9d8f" fill-opacity="0.12" /><path d="M-23.529,25.232 L-25.234,27.06 A37,37 0 0 1 -36.052,8.323 L-33.616,7.761 A34.5,34.5 0 0 0 -23.529,25.232 Z" stroke="#2a9d8f" stroke-width="0.576" fill="none" stroke-dasharray="4 2" /><circle cx="-35.5" cy="0" r="1.365" fill="#d1495b" fill-opacity="0.12" /><circle cx="-35.5" cy="0" r="1.365" stroke="#d1495b" stroke-width="0.576" fill="none" stroke-dasharray="0.6 1.6" /></g><g data-layer="camera-side-variant-mechanical"><circle cx="19.502" cy="-27.851" r="1.17" stroke="#b5651d" stroke-width="0.576" fill="none" stroke-dasharray="4 2" /><circle cx="-21.855" cy="-26.046" r="1.17" stroke="#b5651d" stroke-width="0.576" fill="none" stroke-dasharray="4 2" /></g><g aria-hidden="true"><line x1="-46.08" y1="-45.1" x2="-40.32" y2="-45.1" stroke="#2f80c4" stroke-width="0.686" /><text x="-38.752" y="-44.002" font-size="3.136" fill="#2f80c4" font-family="sans-serif">Throat / opening</text><line x1="-46.08" y1="-40.396" x2="-40.32" y2="-40.396" stroke="#6b7a8f" stroke-width="0.686" /><text x="-38.752" y="-39.298" font-size="3.136" fill="#6b7a8f" font-family="sans-serif">Mount ring</text><line x1="-46.08" y1="-35.692" x2="-40.32" y2="-35.692" stroke="#2a9d8f" stroke-width="0.686" /><text x="-38.752" y="-34.594" font-size="3.136" fill="#2a9d8f" font-family="sans-serif">Bayonet lug / slot</text><line x1="-46.08" y1="-30.988" x2="-40.32" y2="-30.988" stroke="#d1495b" stroke-width="0.686" /><text x="-38.752" y="-29.89" font-size="3.136" fill="#d1495b" font-family="sans-serif">Lock pin / notch</text><line x1="-46.08" y1="-26.284" x2="-40.32" y2="-26.284" stroke="#e8853a" stroke-width="0.686" /><text x="-38.752" y="-25.186" font-size="3.136" fill="#e8853a" font-family="sans-serif">Index mark</text><line x1="-46.08" y1="-21.58" x2="-40.32" y2="-21.58" stroke="#b5651d" stroke-width="0.686" /><text x="-38.752" y="-20.482" font-size="3.136" fill="#b5651d" font-family="sans-serif">Mechanical coupling</text><line x1="-46.08" y1="-16.876" x2="-40.32" y2="-16.876" stroke="#7f8c3a" stroke-width="0.686" /><text x="-38.752" y="-15.778" font-size="3.136" fill="#7f8c3a" font-family="sans-serif">Screws / seals</text><line x1="-46.08" y1="-12.172" x2="-40.32" y2="-12.172" stroke="#8a94a0" stroke-width="0.686" /><text x="-38.752" y="-11.074" font-size="3.136" fill="#8a94a0" font-family="sans-serif">Datum &amp; axis</text></g></svg>
