<?xml version="1.0" encoding="UTF-8"?>
<svg xmlns="http://www.w3.org/2000/svg" viewBox="-32 -32 64 64" role="img" aria-labelledby="leica-m-6-bit-lens_side_rear-title leica-m-6-bit-lens_side_rear-desc"><title id="leica-m-6-bit-lens_side_rear-title">Leica M mount — lens-side rear view (6-bit)</title><desc id="leica-m-6-bit-lens_side_rear-desc">Leica M bayonet mount, lens-side rear view. Flange focal distance 27.8 mm, nominal throat 44 mm. Profile leica-m/6-bit.</desc><metadata>{"mountId":"leica-m","profileId":"leica-m/6-bit","view":"lens_side_rear","schemaVersion":"1.3"}</metadata><g data-layer="datum-axis"><line x1="-1.25" y1="0" x2="1.25" y2="0" stroke="#8a94a0" stroke-width="0.384" fill="none" /><line x1="0" y1="-1.25" x2="0" y2="1.25" stroke="#8a94a0" stroke-width="0.384" fill="none" /><line x1="0" y1="-25" x2="0" y2="-26.5" stroke="#8a94a0" stroke-width="0.384" fill="none" /></g><g data-layer="lens-side-metal"><path d="M0,-25.5 A25.5,25.5 0 1 1 0,25.5 A25.5,25.5 0 1 1 0,-25.5 Z M0,-21 A21,21 0 1 1 0,21 A21,21 0 1 1 0,-21 Z" fill="#6b7a8f" fill-opacity="0.12" fill-rule="evenodd" /><path d="M0,-25.5 A25.5,25.5 0 1 1 0,25.5 A25.5,25.5 0 1 1 0,-25.5 Z M0,-21 A21,21 0 1 1 0,21 A21,21 0 1 1 0,-21 Z" stroke="#6b7a8f" stroke-width="0.384" fill="none" stroke-dasharray="4 2" /><path d="M0,-21 A21,21 0 1 1 0,21 A21,21 0 1 1 0,-21 Z" stroke="#2f80c4" stroke-width="0.384" fill="none" stroke-dasharray="4 2" /></g><g data-layer="lens-side-core-interface"><path d="M0,-23.5 L-1.587,-25.952 L1.587,-25.952 Z" fill="#e8853a" fill-opacity="0.12" /><path d="M0,-23.5 L-1.587,-25.952 L1.587,-25.952 Z" stroke="#e8853a" stroke-width="0.384" fill="none" stroke-dasharray="0.6 1.6" /><path d="M11.331,-18.858 L13.133,-21.858 A25.5,25.5 0 0 1 21.858,-13.133 L18.858,-11.331 A22,22 0 0 0 11.331,-18.858 Z" fill="#2a9d8f" fill-opacity="0.12" /><path d="M11.331,-18.858 L13.133,-21.858 A25.5,25.5 0 0 1 21.858,-13.133 L18.858,-11.331 A22,22 0 0 0 11.331,-18.858 Z" stroke="#2a9d8f" stroke-width="0.384" fill="none" /><path d="M18.858,11.331 L21.858,13.133 A25.5,25.5 0 0 1 13.133,21.858 L11.331,18.858 A22,22 0 0 0 18.858,11.331 Z" fill="#2a9d8f" fill-opacity="0.12" /><path d="M18.858,11.331 L21.858,13.133 A25.5,25.5 0 0 1 13.133,21.858 L11.331,18.858 A22,22 0 0 0 18.858,11.331 Z" stroke="#2a9d8f" stroke-width="0.384" fill="none" /><path d="M-11.331,18.858 L-13.133,21.858 A25.5,25.5 0 0 1 -21.858,13.133 L-18.858,11.331 A22,22 0 0 0 -11.331,18.858 Z" fill="#2a9d8f" fill-opacity="0.12" /><path d="M-11.331,18.858 L-13.133,21.858 A25.5,25.5 0 0 1 -21.858,13.133 L-18.858,11.331 A22,22 0 0 0 -11.331,18.858 Z" stroke="#2a9d8f" stroke-width="0.384" fill="none" /><circle cx="-17.324" cy="-17.324" r="0.875" fill="#d1495b" fill-opacity="0.12" /><circle cx="-17.324" cy="-17.324" r="0.875" stroke="#d1495b" stroke-width="0.384" fill="none" /><path d="M-20.251,-8.596 L-23.473,-9.964 A25.5,25.5 0 0 1 -9.964,-23.473 L-8.596,-20.251 A22,22 0 0 0 -20.251,-8.596 Z" fill="#2a9d8f" fill-opacity="0.12" /><path d="M-20.251,-8.596 L-23.473,-9.964 A25.5,25.5 0 0 1 -9.964,-23.473 L-8.596,-20.251 A22,22 0 0 0 -20.251,-8.596 Z" stroke="#2a9d8f" stroke-width="0.384" fill="none" /></g><g data-layer="lens-side-variant-mechanical"><circle cx="8.551" cy="23.492" r="0.8" stroke="#b5651d" stroke-width="0.384" fill="none" stroke-dasharray="4 2" /><circle cx="-12.728" cy="-12.728" r="0.8" stroke="#b5651d" stroke-width="0.384" fill="none" /></g><g aria-hidden="true"><line x1="-30.72" y1="-28.8" x2="-26.72" y2="-28.8" stroke="#2f80c4" stroke-width="0.448" /><text x="-25.696" y="-28.083" font-size="2.048" fill="#2f80c4" font-family="sans-serif">Throat / opening</text><line x1="-30.72" y1="-25.728" x2="-26.72" y2="-25.728" stroke="#6b7a8f" stroke-width="0.448" /><text x="-25.696" y="-25.011" font-size="2.048" fill="#6b7a8f" font-family="sans-serif">Mount ring</text><line x1="-30.72" y1="-22.656" x2="-26.72" y2="-22.656" stroke="#2a9d8f" stroke-width="0.448" /><text x="-25.696" y="-21.939" font-size="2.048" fill="#2a9d8f" font-family="sans-serif">Bayonet lug / slot</text><line x1="-30.72" y1="-19.584" x2="-26.72" y2="-19.584" stroke="#d1495b" stroke-width="0.448" /><text x="-25.696" y="-18.867" font-size="2.048" fill="#d1495b" font-family="sans-serif">Lock pin / notch</text><line x1="-30.72" y1="-16.512" x2="-26.72" y2="-16.512" stroke="#e8853a" stroke-width="0.448" /><text x="-25.696" y="-15.795" font-size="2.048" fill="#e8853a" font-family="sans-serif">Index mark</text><line x1="-30.72" y1="-13.44" x2="-26.72" y2="-13.44" stroke="#b5651d" stroke-width="0.448" /><text x="-25.696" y="-12.723" font-size="2.048" fill="#b5651d" font-family="sans-serif">Mechanical coupling</text><line x1="-30.72" y1="-10.368" x2="-26.72" y2="-10.368" stroke="#8a94a0" stroke-width="0.448" /><text x="-25.696" y="-9.651" font-size="2.048" fill="#8a94a0" font-family="sans-serif">Datum &amp; axis</text></g></svg>
