<?xml version="1.0" encoding="UTF-8"?>
<svg xmlns="http://www.w3.org/2000/svg" viewBox="-32 -33 64 65" role="img" aria-labelledby="leica-m-6-bit-camera_side_front-title leica-m-6-bit-camera_side_front-desc"><title id="leica-m-6-bit-camera_side_front-title">Leica M mount — camera-side front view (6-bit)</title><desc id="leica-m-6-bit-camera_side_front-desc">Leica M bayonet mount, camera-side front view. Flange focal distance 27.8 mm, nominal throat 44 mm. Profile leica-m/6-bit.</desc><metadata>{"mountId":"leica-m","profileId":"leica-m/6-bit","view":"camera_side_front","schemaVersion":"1.3"}</metadata><g data-layer="datum-axis"><line x1="-1.3" y1="0" x2="1.3" y2="0" stroke="#8a94a0" stroke-width="0.384" fill="none" /><line x1="0" y1="-1.3" x2="0" y2="1.3" stroke="#8a94a0" stroke-width="0.384" fill="none" /><line x1="0" y1="-26" x2="0" y2="-27.56" stroke="#8a94a0" stroke-width="0.384" fill="none" /></g><g data-layer="camera-side-metal"><path d="M0,-26 A26,26 0 1 1 0,26 A26,26 0 1 1 0,-26 Z M0,-22 A22,22 0 1 1 0,22 A22,22 0 1 1 0,-22 Z" fill="#6b7a8f" fill-opacity="0.12" fill-rule="evenodd" /><path d="M0,-26 A26,26 0 1 1 0,26 A26,26 0 1 1 0,-26 Z M0,-22 A22,22 0 1 1 0,22 A22,22 0 1 1 0,-22 Z" stroke="#6b7a8f" stroke-width="0.384" fill="none" stroke-dasharray="4 2" /><path d="M0,-22 A22,22 0 1 1 0,22 A22,22 0 1 1 0,-22 Z" stroke="#2f80c4" stroke-width="0.288" fill="none" /><circle cx="17.324" cy="-17.324" r="0.8" stroke="#7f8c3a" stroke-width="0.384" fill="none" stroke-dasharray="4 2" /><circle cx="17.324" cy="17.324" r="0.8" stroke="#7f8c3a" stroke-width="0.384" fill="none" stroke-dasharray="4 2" /><circle cx="-17.324" cy="17.324" r="0.8" stroke="#7f8c3a" stroke-width="0.384" fill="none" stroke-dasharray="4 2" /><circle cx="-17.324" cy="-17.324" r="0.8" stroke="#7f8c3a" stroke-width="0.384" fill="none" stroke-dasharray="4 2" /></g><g data-layer="camera-side-core-interface"><path d="M0,-23.9 L-1.618,-26.451 L1.618,-26.451 Z" fill="#e8853a" fill-opacity="0.12" /><path d="M0,-23.9 L-1.618,-26.451 L1.618,-26.451 Z" stroke="#e8853a" stroke-width="0.384" fill="none" stroke-dasharray="0.6 1.6" /><path d="M10.328,-19.425 L11.972,-22.515 A25.5,25.5 0 0 1 22.515,-11.972 L19.425,-10.328 A22,22 0 0 0 10.328,-19.425 Z" fill="#2a9d8f" fill-opacity="0.12" /><path d="M10.328,-19.425 L11.972,-22.515 A25.5,25.5 0 0 1 22.515,-11.972 L19.425,-10.328 A22,22 0 0 0 10.328,-19.425 Z" stroke="#2a9d8f" stroke-width="0.384" fill="none" stroke-dasharray="4 2" /><path d="M19.425,10.328 L22.515,11.972 A25.5,25.5 0 0 1 11.972,22.515 L10.328,19.425 A22,22 0 0 0 19.425,10.328 Z" fill="#2a9d8f" fill-opacity="0.12" /><path d="M19.425,10.328 L22.515,11.972 A25.5,25.5 0 0 1 11.972,22.515 L10.328,19.425 A22,22 0 0 0 19.425,10.328 Z" stroke="#2a9d8f" stroke-width="0.384" fill="none" stroke-dasharray="4 2" /><circle cx="0" cy="24.5" r="0.91" fill="#d1495b" fill-opacity="0.12" /><circle cx="0" cy="24.5" r="0.91" stroke="#d1495b" stroke-width="0.384" fill="none" stroke-dasharray="0.6 1.6" /><path d="M-10.328,19.425 L-11.972,22.515 A25.5,25.5 0 0 1 -22.515,11.972 L-19.425,10.328 A22,22 0 0 0 -10.328,19.425 Z" fill="#2a9d8f" fill-opacity="0.12" /><path d="M-10.328,19.425 L-11.972,22.515 A25.5,25.5 0 0 1 -22.515,11.972 L-19.425,10.328 A22,22 0 0 0 -10.328,19.425 Z" stroke="#2a9d8f" stroke-width="0.384" fill="none" stroke-dasharray="4 2" /><path d="M-19.425,-10.328 L-22.515,-11.972 A25.5,25.5 0 0 1 -11.972,-22.515 L-10.328,-19.425 A22,22 0 0 0 -19.425,-10.328 Z" fill="#2a9d8f" fill-opacity="0.12" /><path d="M-19.425,-10.328 L-22.515,-11.972 A25.5,25.5 0 0 1 -11.972,-22.515 L-10.328,-19.425 A22,22 0 0 0 -19.425,-10.328 Z" stroke="#2a9d8f" stroke-width="0.384" fill="none" stroke-dasharray="4 2" /></g><g data-layer="camera-side-variant-mechanical"><circle cx="0" cy="-18" r="0.8" stroke="#b5651d" stroke-width="0.384" fill="none" stroke-dasharray="4 2" /></g><g aria-hidden="true"><line x1="-30.72" y1="-29.75" x2="-26.72" y2="-29.75" stroke="#2f80c4" stroke-width="0.455" /><text x="-25.68" y="-29.022" font-size="2.08" fill="#2f80c4" font-family="sans-serif">Throat / opening</text><line x1="-30.72" y1="-26.63" x2="-26.72" y2="-26.63" stroke="#6b7a8f" stroke-width="0.455" /><text x="-25.68" y="-25.902" font-size="2.08" fill="#6b7a8f" font-family="sans-serif">Mount ring</text><line x1="-30.72" y1="-23.51" x2="-26.72" y2="-23.51" stroke="#2a9d8f" stroke-width="0.455" /><text x="-25.68" y="-22.782" font-size="2.08" fill="#2a9d8f" font-family="sans-serif">Bayonet lug / slot</text><line x1="-30.72" y1="-20.39" x2="-26.72" y2="-20.39" stroke="#d1495b" stroke-width="0.455" /><text x="-25.68" y="-19.662" font-size="2.08" fill="#d1495b" font-family="sans-serif">Lock pin / notch</text><line x1="-30.72" y1="-17.27" x2="-26.72" y2="-17.27" stroke="#e8853a" stroke-width="0.455" /><text x="-25.68" y="-16.542" font-size="2.08" fill="#e8853a" font-family="sans-serif">Index mark</text><line x1="-30.72" y1="-14.15" x2="-26.72" y2="-14.15" stroke="#b5651d" stroke-width="0.455" /><text x="-25.68" y="-13.422" font-size="2.08" fill="#b5651d" font-family="sans-serif">Mechanical coupling</text><line x1="-30.72" y1="-11.03" x2="-26.72" y2="-11.03" stroke="#7f8c3a" stroke-width="0.455" /><text x="-25.68" y="-10.302" font-size="2.08" fill="#7f8c3a" font-family="sans-serif">Screws / seals</text><line x1="-30.72" y1="-7.91" x2="-26.72" y2="-7.91" stroke="#8a94a0" stroke-width="0.455" /><text x="-25.68" y="-7.182" font-size="2.08" fill="#8a94a0" font-family="sans-serif">Datum &amp; axis</text></g></svg>
