<?xml version="1.0" encoding="UTF-8"?>
<svg xmlns="http://www.w3.org/2000/svg" viewBox="-28 -28 56 56" role="img" aria-labelledby="micro-four-thirds-base-camera_side_front-title micro-four-thirds-base-camera_side_front-desc"><title id="micro-four-thirds-base-camera_side_front-title">Micro Four Thirds mount — camera-side front view (base)</title><desc id="micro-four-thirds-base-camera_side_front-desc">Micro Four Thirds bayonet mount, camera-side front view. Flange focal distance 19.25 mm, nominal throat 38 mm. Profile micro-four-thirds/base.</desc><metadata>{"mountId":"micro-four-thirds","profileId":"micro-four-thirds/base","view":"camera_side_front","schemaVersion":"1.3"}</metadata><g data-layer="datum-axis"><line x1="-1.1" y1="0" x2="1.1" y2="0" stroke="#8a94a0" stroke-width="0.336" fill="none" /><line x1="0" y1="-1.1" x2="0" y2="1.1" stroke="#8a94a0" stroke-width="0.336" fill="none" /><line x1="0" y1="-22" x2="0" y2="-23.32" stroke="#8a94a0" stroke-width="0.336" fill="none" /></g><g data-layer="camera-side-metal"><path d="M0,-22 A22,22 0 1 1 0,22 A22,22 0 1 1 0,-22 Z M0,-19 A19,19 0 1 1 0,19 A19,19 0 1 1 0,-19 Z" fill="#6b7a8f" fill-opacity="0.12" fill-rule="evenodd" /><path d="M0,-22 A22,22 0 1 1 0,22 A22,22 0 1 1 0,-22 Z M0,-19 A19,19 0 1 1 0,19 A19,19 0 1 1 0,-19 Z" stroke="#6b7a8f" stroke-width="0.336" fill="none" /><path d="M0,-19 A19,19 0 1 1 0,19 A19,19 0 1 1 0,-19 Z" stroke="#2f80c4" stroke-width="0.252" fill="none" /><circle cx="14.142" cy="-14.142" r="0.8" stroke="#7f8c3a" stroke-width="0.336" fill="none" stroke-dasharray="4 2" /><circle cx="14.142" cy="14.142" r="0.8" stroke="#7f8c3a" stroke-width="0.336" fill="none" stroke-dasharray="4 2" /><circle cx="-14.142" cy="14.142" r="0.8" stroke="#7f8c3a" stroke-width="0.336" fill="none" stroke-dasharray="4 2" /><circle cx="-14.142" cy="-14.142" r="0.8" stroke="#7f8c3a" stroke-width="0.336" fill="none" stroke-dasharray="4 2" /></g><g data-layer="camera-side-core-interface"><path d="M0,-20.3 L-1.374,-22.458 L1.374,-22.458 Z" fill="#e8853a" fill-opacity="0.12" /><path d="M0,-20.3 L-1.374,-22.458 L1.374,-22.458 Z" stroke="#e8853a" stroke-width="0.336" fill="none" stroke-dasharray="0.6 1.6" /><path d="M3.625,-18.651 L4.102,-21.105 A21.5,21.5 0 0 1 16.226,-14.105 L14.339,-12.465 A19,19 0 0 0 3.625,-18.651 Z" fill="#2a9d8f" fill-opacity="0.12" /><path d="M3.625,-18.651 L4.102,-21.105 A21.5,21.5 0 0 1 16.226,-14.105 L14.339,-12.465 A19,19 0 0 0 3.625,-18.651 Z" stroke="#2a9d8f" stroke-width="0.336" fill="none" /><circle cx="20" cy="0" r="0.77" fill="#d1495b" fill-opacity="0.12" /><circle cx="20" cy="0" r="0.77" stroke="#d1495b" stroke-width="0.336" fill="none" stroke-dasharray="0.6 1.6" /><path d="M14.339,12.465 L16.226,14.105 A21.5,21.5 0 0 1 4.102,21.105 L3.625,18.651 A19,19 0 0 0 14.339,12.465 Z" fill="#2a9d8f" fill-opacity="0.12" /><path d="M14.339,12.465 L16.226,14.105 A21.5,21.5 0 0 1 4.102,21.105 L3.625,18.651 A19,19 0 0 0 14.339,12.465 Z" stroke="#2a9d8f" stroke-width="0.336" fill="none" /><path d="M-18.974,-0.994 L-21.471,-1.125 A21.5,21.5 0 0 1 -16.226,-14.105 L-14.339,-12.465 A19,19 0 0 0 -18.974,-0.994 Z" fill="#2a9d8f" fill-opacity="0.12" /><path d="M-18.974,-0.994 L-21.471,-1.125 A21.5,21.5 0 0 1 -16.226,-14.105 L-14.339,-12.465 A19,19 0 0 0 -18.974,-0.994 Z" stroke="#2a9d8f" stroke-width="0.336" fill="none" /></g><g data-layer="camera-side-variant-electrical"><path d="M-0.596,-15.589 L-0.703,-18.387 A18.4,18.4 0 0 1 0.703,-18.387 L0.596,-15.589 A15.6,15.6 0 0 0 -0.596,-15.589 Z" fill="#8a5cd1" fill-opacity="0.12" /><path d="M-0.596,-15.589 L-0.703,-18.387 A18.4,18.4 0 0 1 0.703,-18.387 L0.596,-15.589 A15.6,15.6 0 0 0 -0.596,-15.589 Z" stroke="#8a5cd1" stroke-width="0.336" fill="none" /><path d="M1.85,-15.49 L2.182,-18.27 A18.4,18.4 0 0 1 3.571,-18.05 L3.028,-15.303 A15.6,15.6 0 0 0 1.85,-15.49 Z" fill="#8a5cd1" fill-opacity="0.12" /><path d="M1.85,-15.49 L2.182,-18.27 A18.4,18.4 0 0 1 3.571,-18.05 L3.028,-15.303 A15.6,15.6 0 0 0 1.85,-15.49 Z" stroke="#8a5cd1" stroke-width="0.336" fill="none" /><path d="M4.25,-15.01 L5.013,-17.704 A18.4,18.4 0 0 1 6.351,-17.269 L5.384,-14.641 A15.6,15.6 0 0 0 4.25,-15.01 Z" fill="#8a5cd1" fill-opacity="0.12" /><path d="M4.25,-15.01 L5.013,-17.704 A18.4,18.4 0 0 1 6.351,-17.269 L5.384,-14.641 A15.6,15.6 0 0 0 4.25,-15.01 Z" stroke="#8a5cd1" stroke-width="0.336" fill="none" /><path d="M6.546,-14.16 L7.721,-16.702 A18.4,18.4 0 0 1 8.974,-16.063 L7.608,-13.619 A15.6,15.6 0 0 0 6.546,-14.16 Z" fill="#8a5cd1" fill-opacity="0.12" /><path d="M6.546,-14.16 L7.721,-16.702 A18.4,18.4 0 0 1 8.974,-16.063 L7.608,-13.619 A15.6,15.6 0 0 0 6.546,-14.16 Z" stroke="#8a5cd1" stroke-width="0.336" fill="none" /><path d="M8.68,-12.962 L10.238,-15.288 A18.4,18.4 0 0 1 11.376,-14.462 L9.645,-12.261 A15.6,15.6 0 0 0 8.68,-12.962 Z" fill="#8a5cd1" fill-opacity="0.12" /><path d="M8.68,-12.962 L10.238,-15.288 A18.4,18.4 0 0 1 11.376,-14.462 L9.645,-12.261 A15.6,15.6 0 0 0 8.68,-12.962 Z" stroke="#8a5cd1" stroke-width="0.336" fill="none" /><path d="M10.601,-11.444 L12.504,-13.499 A18.4,18.4 0 0 1 13.499,-12.504 L11.444,-10.601 A15.6,15.6 0 0 0 10.601,-11.444 Z" fill="#8a5cd1" fill-opacity="0.12" /><path d="M10.601,-11.444 L12.504,-13.499 A18.4,18.4 0 0 1 13.499,-12.504 L11.444,-10.601 A15.6,15.6 0 0 0 10.601,-11.444 Z" stroke="#8a5cd1" stroke-width="0.336" fill="none" /><path d="M-11.444,-10.601 L-13.499,-12.504 A18.4,18.4 0 0 1 -12.504,-13.499 L-10.601,-11.444 A15.6,15.6 0 0 0 -11.444,-10.601 Z" fill="#8a5cd1" fill-opacity="0.12" /><path d="M-11.444,-10.601 L-13.499,-12.504 A18.4,18.4 0 0 1 -12.504,-13.499 L-10.601,-11.444 A15.6,15.6 0 0 0 -11.444,-10.601 Z" stroke="#8a5cd1" stroke-width="0.336" fill="none" /><path d="M-9.645,-12.261 L-11.376,-14.462 A18.4,18.4 0 0 1 -10.238,-15.288 L-8.68,-12.962 A15.6,15.6 0 0 0 -9.645,-12.261 Z" fill="#8a5cd1" fill-opacity="0.12" /><path d="M-9.645,-12.261 L-11.376,-14.462 A18.4,18.4 0 0 1 -10.238,-15.288 L-8.68,-12.962 A15.6,15.6 0 0 0 -9.645,-12.261 Z" stroke="#8a5cd1" stroke-width="0.336" fill="none" /><path d="M-7.608,-13.619 L-8.974,-16.063 A18.4,18.4 0 0 1 -7.721,-16.702 L-6.546,-14.16 A15.6,15.6 0 0 0 -7.608,-13.619 Z" fill="#8a5cd1" fill-opacity="0.12" /><path d="M-7.608,-13.619 L-8.974,-16.063 A18.4,18.4 0 0 1 -7.721,-16.702 L-6.546,-14.16 A15.6,15.6 0 0 0 -7.608,-13.619 Z" stroke="#8a5cd1" stroke-width="0.336" fill="none" /><path d="M-5.384,-14.641 L-6.351,-17.269 A18.4,18.4 0 0 1 -5.013,-17.704 L-4.25,-15.01 A15.6,15.6 0 0 0 -5.384,-14.641 Z" fill="#8a5cd1" fill-opacity="0.12" /><path d="M-5.384,-14.641 L-6.351,-17.269 A18.4,18.4 0 0 1 -5.013,-17.704 L-4.25,-15.01 A15.6,15.6 0 0 0 -5.384,-14.641 Z" stroke="#8a5cd1" stroke-width="0.336" fill="none" /><path d="M-3.028,-15.303 L-3.571,-18.05 A18.4,18.4 0 0 1 -2.182,-18.27 L-1.85,-15.49 A15.6,15.6 0 0 0 -3.028,-15.303 Z" fill="#8a5cd1" fill-opacity="0.12" /><path d="M-3.028,-15.303 L-3.571,-18.05 A18.4,18.4 0 0 1 -2.182,-18.27 L-1.85,-15.49 A15.6,15.6 0 0 0 -3.028,-15.303 Z" stroke="#8a5cd1" stroke-width="0.336" fill="none" /></g><g aria-hidden="true"><line x1="-26.88" y1="-25.2" x2="-22.88" y2="-25.2" stroke="#2f80c4" stroke-width="0.4" /><text x="-21.88" y="-24.5" font-size="2" fill="#2f80c4" font-family="sans-serif">Throat / opening</text><line x1="-26.88" y1="-22.2" x2="-22.88" y2="-22.2" stroke="#6b7a8f" stroke-width="0.4" /><text x="-21.88" y="-21.5" font-size="2" fill="#6b7a8f" font-family="sans-serif">Mount ring</text><line x1="-26.88" y1="-19.2" x2="-22.88" y2="-19.2" stroke="#2a9d8f" stroke-width="0.4" /><text x="-21.88" y="-18.5" font-size="2" fill="#2a9d8f" font-family="sans-serif">Bayonet lug / slot</text><line x1="-26.88" y1="-16.2" x2="-22.88" y2="-16.2" stroke="#d1495b" stroke-width="0.4" /><text x="-21.88" y="-15.5" font-size="2" fill="#d1495b" font-family="sans-serif">Lock pin / notch</text><line x1="-26.88" y1="-13.2" x2="-22.88" y2="-13.2" stroke="#e8853a" stroke-width="0.4" /><text x="-21.88" y="-12.5" font-size="2" fill="#e8853a" font-family="sans-serif">Index mark</text><line x1="-26.88" y1="-10.2" x2="-22.88" y2="-10.2" stroke="#8a5cd1" stroke-width="0.4" /><text x="-21.88" y="-9.5" font-size="2" fill="#8a5cd1" font-family="sans-serif">Electrical contact</text><line x1="-26.88" y1="-7.2" x2="-22.88" y2="-7.2" stroke="#7f8c3a" stroke-width="0.4" /><text x="-21.88" y="-6.5" font-size="2" fill="#7f8c3a" font-family="sans-serif">Screws / seals</text><line x1="-26.88" y1="-4.2" x2="-22.88" y2="-4.2" stroke="#8a94a0" stroke-width="0.4" /><text x="-21.88" y="-3.5" font-size="2" fill="#8a94a0" font-family="sans-serif">Datum &amp; axis</text></g></svg>
