<?xml version="1.0" encoding="UTF-8"?>
<svg xmlns="http://www.w3.org/2000/svg" viewBox="-35 -36 70 71" role="img" aria-labelledby="pentax-k-ka-camera_side_front-title pentax-k-ka-camera_side_front-desc"><title id="pentax-k-ka-camera_side_front-title">Pentax K mount — camera-side front view (ka)</title><desc id="pentax-k-ka-camera_side_front-desc">Pentax K bayonet mount, camera-side front view. Flange focal distance 45.46 mm, nominal throat 44 mm. Profile pentax-k/ka.</desc><metadata>{"mountId":"pentax-k","profileId":"pentax-k/ka","view":"camera_side_front","schemaVersion":"1.3"}</metadata><g data-layer="datum-axis"><line x1="-1.4" y1="0" x2="1.4" y2="0" stroke="#8a94a0" stroke-width="0.42" fill="none" /><line x1="0" y1="-1.4" x2="0" y2="1.4" stroke="#8a94a0" stroke-width="0.42" fill="none" /><line x1="0" y1="-28" x2="0" y2="-29.68" stroke="#8a94a0" stroke-width="0.42" fill="none" /></g><g data-layer="camera-side-metal"><path d="M0,-28 A28,28 0 1 1 0,28 A28,28 0 1 1 0,-28 Z M0,-22 A22,22 0 1 1 0,22 A22,22 0 1 1 0,-22 Z" fill="#6b7a8f" fill-opacity="0.12" fill-rule="evenodd" /><path d="M0,-28 A28,28 0 1 1 0,28 A28,28 0 1 1 0,-28 Z M0,-22 A22,22 0 1 1 0,22 A22,22 0 1 1 0,-22 Z" stroke="#6b7a8f" stroke-width="0.42" fill="none" stroke-dasharray="4 2" /><path d="M0,-22 A22,22 0 1 1 0,22 A22,22 0 1 1 0,-22 Z" stroke="#2f80c4" stroke-width="0.315" fill="none" /><circle cx="17.678" cy="-17.678" r="1" stroke="#7f8c3a" stroke-width="0.42" fill="none" stroke-dasharray="4 2" /><circle cx="17.678" cy="17.678" r="1" stroke="#7f8c3a" stroke-width="0.42" fill="none" stroke-dasharray="4 2" /><circle cx="-17.678" cy="17.678" r="1" stroke="#7f8c3a" stroke-width="0.42" fill="none" stroke-dasharray="4 2" /><circle cx="-17.678" cy="-17.678" r="1" stroke="#7f8c3a" stroke-width="0.42" fill="none" stroke-dasharray="4 2" /></g><g data-layer="camera-side-core-interface"><path d="M0,-26.2 L-1.77,-28.946 L1.77,-28.946 Z" fill="#e8853a" fill-opacity="0.12" /><path d="M0,-26.2 L-1.77,-28.946 L1.77,-28.946 Z" stroke="#e8853a" stroke-width="0.42" fill="none" stroke-dasharray="0.6 1.6" /><path d="M4.574,-21.519 L5.094,-23.965 A24.5,24.5 0 0 1 18.207,-16.394 L16.349,-14.721 A22,22 0 0 0 4.574,-21.519 Z" fill="#2a9d8f" fill-opacity="0.12" /><path d="M4.574,-21.519 L5.094,-23.965 A24.5,24.5 0 0 1 18.207,-16.394 L16.349,-14.721 A22,22 0 0 0 4.574,-21.519 Z" stroke="#2a9d8f" stroke-width="0.42" fill="none" stroke-dasharray="4 2" /><circle cx="21.249" cy="8.802" r="0.98" fill="#d1495b" fill-opacity="0.12" /><circle cx="21.249" cy="8.802" r="0.98" stroke="#d1495b" stroke-width="0.42" fill="none" stroke-dasharray="0.6 1.6" /><path d="M16.349,14.721 L18.207,16.394 A24.5,24.5 0 0 1 5.094,23.965 L4.574,21.519 A22,22 0 0 0 16.349,14.721 Z" fill="#2a9d8f" fill-opacity="0.12" /><path d="M16.349,14.721 L18.207,16.394 A24.5,24.5 0 0 1 5.094,23.965 L4.574,21.519 A22,22 0 0 0 16.349,14.721 Z" stroke="#2a9d8f" stroke-width="0.42" fill="none" stroke-dasharray="4 2" /><path d="M-20.923,6.798 L-23.301,7.571 A24.5,24.5 0 0 1 -23.301,-7.571 L-20.923,-6.798 A22,22 0 0 0 -20.923,6.798 Z" fill="#2a9d8f" fill-opacity="0.12" /><path d="M-20.923,6.798 L-23.301,7.571 A24.5,24.5 0 0 1 -23.301,-7.571 L-20.923,-6.798 A22,22 0 0 0 -20.923,6.798 Z" stroke="#2a9d8f" stroke-width="0.42" fill="none" stroke-dasharray="4 2" /></g><g data-layer="camera-side-variant-electrical"><path d="M-10.563,16.153 L-11.877,18.161 A21.7,21.7 0 0 1 -13.004,17.372 L-11.566,15.451 A19.3,19.3 0 0 0 -10.563,16.153 Z" fill="#8a5cd1" fill-opacity="0.12" /><path d="M-10.563,16.153 L-11.877,18.161 A21.7,21.7 0 0 1 -13.004,17.372 L-11.566,15.451 A19.3,19.3 0 0 0 -10.563,16.153 Z" stroke="#8a5cd1" stroke-width="0.42" fill="none" stroke-dasharray="4 2" /><path d="M-12.708,14.525 L-14.289,16.332 A21.7,21.7 0 0 1 -15.295,15.393 L-13.603,13.691 A19.3,19.3 0 0 0 -12.708,14.525 Z" fill="#8a5cd1" fill-opacity="0.12" /><path d="M-12.708,14.525 L-14.289,16.332 A21.7,21.7 0 0 1 -15.295,15.393 L-13.603,13.691 A19.3,19.3 0 0 0 -12.708,14.525 Z" stroke="#8a5cd1" stroke-width="0.42" fill="none" stroke-dasharray="4 2" /><path d="M-14.606,12.615 L-16.423,14.184 A21.7,21.7 0 0 1 -17.289,13.115 L-15.376,11.664 A19.3,19.3 0 0 0 -14.606,12.615 Z" fill="#8a5cd1" fill-opacity="0.12" /><path d="M-14.606,12.615 L-16.423,14.184 A21.7,21.7 0 0 1 -17.289,13.115 L-15.376,11.664 A19.3,19.3 0 0 0 -14.606,12.615 Z" stroke="#8a5cd1" stroke-width="0.42" fill="none" stroke-dasharray="4 2" /><path d="M-16.22,10.46 L-18.237,11.76 A21.7,21.7 0 0 1 -18.945,10.581 L-16.85,9.411 A19.3,19.3 0 0 0 -16.22,10.46 Z" fill="#8a5cd1" fill-opacity="0.12" /><path d="M-16.22,10.46 L-18.237,11.76 A21.7,21.7 0 0 1 -18.945,10.581 L-16.85,9.411 A19.3,19.3 0 0 0 -16.22,10.46 Z" stroke="#8a5cd1" stroke-width="0.42" fill="none" stroke-dasharray="4 2" /><path d="M-17.518,8.101 L-19.696,9.108 A21.7,21.7 0 0 1 -20.234,7.841 L-17.996,6.974 A19.3,19.3 0 0 0 -17.518,8.101 Z" fill="#8a5cd1" fill-opacity="0.12" /><path d="M-17.518,8.101 L-19.696,9.108 A21.7,21.7 0 0 1 -20.234,7.841 L-17.996,6.974 A19.3,19.3 0 0 0 -17.518,8.101 Z" stroke="#8a5cd1" stroke-width="0.42" fill="none" stroke-dasharray="4 2" /><path d="M-18.475,5.584 L-20.772,6.278 A21.7,21.7 0 0 1 -21.128,4.949 L-18.791,4.402 A19.3,19.3 0 0 0 -18.475,5.584 Z" fill="#8a5cd1" fill-opacity="0.12" /><path d="M-18.475,5.584 L-20.772,6.278 A21.7,21.7 0 0 1 -21.128,4.949 L-18.791,4.402 A19.3,19.3 0 0 0 -18.475,5.584 Z" stroke="#8a5cd1" stroke-width="0.42" fill="none" stroke-dasharray="4 2" /></g><g data-layer="camera-side-variant-mechanical"><circle cx="-22.216" cy="-5.953" r="0.84" stroke="#b5651d" stroke-width="0.42" fill="none" stroke-dasharray="4 2" /><circle cx="-20.785" cy="-12" r="0.84" stroke="#b5651d" stroke-width="0.42" fill="none" stroke-dasharray="4 2" /></g><g aria-hidden="true"><line x1="-33.6" y1="-32.45" x2="-29.4" y2="-32.45" stroke="#2f80c4" stroke-width="0.497" /><text x="-28.264" y="-31.655" font-size="2.272" fill="#2f80c4" font-family="sans-serif">Throat / opening</text><line x1="-33.6" y1="-29.042" x2="-29.4" y2="-29.042" stroke="#6b7a8f" stroke-width="0.497" /><text x="-28.264" y="-28.247" font-size="2.272" fill="#6b7a8f" font-family="sans-serif">Mount ring</text><line x1="-33.6" y1="-25.634" x2="-29.4" y2="-25.634" stroke="#2a9d8f" stroke-width="0.497" /><text x="-28.264" y="-24.839" font-size="2.272" fill="#2a9d8f" font-family="sans-serif">Bayonet lug / slot</text><line x1="-33.6" y1="-22.226" x2="-29.4" y2="-22.226" stroke="#d1495b" stroke-width="0.497" /><text x="-28.264" y="-21.431" font-size="2.272" fill="#d1495b" font-family="sans-serif">Lock pin / notch</text><line x1="-33.6" y1="-18.818" x2="-29.4" y2="-18.818" stroke="#e8853a" stroke-width="0.497" /><text x="-28.264" y="-18.023" font-size="2.272" fill="#e8853a" font-family="sans-serif">Index mark</text><line x1="-33.6" y1="-15.41" x2="-29.4" y2="-15.41" stroke="#8a5cd1" stroke-width="0.497" /><text x="-28.264" y="-14.615" font-size="2.272" fill="#8a5cd1" font-family="sans-serif">Electrical contact</text><line x1="-33.6" y1="-12.002" x2="-29.4" y2="-12.002" stroke="#b5651d" stroke-width="0.497" /><text x="-28.264" y="-11.207" font-size="2.272" fill="#b5651d" font-family="sans-serif">Mechanical coupling</text><line x1="-33.6" y1="-8.594" x2="-29.4" y2="-8.594" stroke="#7f8c3a" stroke-width="0.497" /><text x="-28.264" y="-7.799" font-size="2.272" fill="#7f8c3a" font-family="sans-serif">Screws / seals</text><line x1="-33.6" y1="-5.186" x2="-29.4" y2="-5.186" stroke="#8a94a0" stroke-width="0.497" /><text x="-28.264" y="-4.391" font-size="2.272" fill="#8a94a0" font-family="sans-serif">Datum &amp; axis</text></g></svg>
