<?xml version="1.0" encoding="UTF-8"?>
<svg xmlns="http://www.w3.org/2000/svg" viewBox="-20 -21 40 41" role="img" aria-labelledby="pentax-110-base-lens_side_rear-title pentax-110-base-lens_side_rear-desc"><title id="pentax-110-base-lens_side_rear-title">Pentax 110 mount — lens-side rear view (base)</title><desc id="pentax-110-base-lens_side_rear-desc">Pentax 110 bayonet mount, lens-side rear view. Flange focal distance 27 mm, nominal throat 25 mm. Profile pentax-110/base.</desc><metadata>{"mountId":"pentax-110","profileId":"pentax-110/base","view":"lens_side_rear","schemaVersion":"1.3"}</metadata><g data-layer="datum-axis"><line x1="-1" y1="0" x2="1" y2="0" stroke="#8a94a0" stroke-width="0.25" fill="none" /><line x1="0" y1="-1" x2="0" y2="1" stroke="#8a94a0" stroke-width="0.25" fill="none" /><line x1="0" y1="-16" x2="0" y2="-16.96" stroke="#8a94a0" stroke-width="0.25" fill="none" /></g><g data-layer="lens-side-metal"><path d="M0,-16 A16,16 0 1 1 0,16 A16,16 0 1 1 0,-16 Z M0,-11.5 A11.5,11.5 0 1 1 0,11.5 A11.5,11.5 0 1 1 0,-11.5 Z" fill="#6b7a8f" fill-opacity="0.12" fill-rule="evenodd" /><path d="M0,-16 A16,16 0 1 1 0,16 A16,16 0 1 1 0,-16 Z M0,-11.5 A11.5,11.5 0 1 1 0,11.5 A11.5,11.5 0 1 1 0,-11.5 Z" stroke="#6b7a8f" stroke-width="0.25" fill="none" stroke-dasharray="4 2" /><path d="M0,-11.5 A11.5,11.5 0 1 1 0,11.5 A11.5,11.5 0 1 1 0,-11.5 Z" stroke="#2f80c4" stroke-width="0.25" fill="none" stroke-dasharray="4 2" /></g><g data-layer="lens-side-core-interface"><path d="M0,-14.9 L-1.007,-16.469 L1.007,-16.469 Z" fill="#e8853a" fill-opacity="0.12" /><path d="M0,-14.9 L-1.007,-16.469 L1.007,-16.469 Z" stroke="#e8853a" stroke-width="0.25" fill="none" stroke-dasharray="0.6 1.6" /><path d="M-4.48,-11.67 L-5.376,-14.004 A15,15 0 0 1 5.376,-14.004 L4.48,-11.67 A12.5,12.5 0 0 0 -4.48,-11.67 Z" fill="#2a9d8f" fill-opacity="0.12" /><path d="M-4.48,-11.67 L-5.376,-14.004 A15,15 0 0 1 5.376,-14.004 L4.48,-11.67 A12.5,12.5 0 0 0 -4.48,-11.67 Z" stroke="#2a9d8f" stroke-width="0.25" fill="none" stroke-dasharray="4 2" /><path d="M4.48,11.67 L5.376,14.004 A15,15 0 0 1 -5.376,14.004 L-4.48,11.67 A12.5,12.5 0 0 0 4.48,11.67 Z" fill="#2a9d8f" fill-opacity="0.12" /><path d="M4.48,11.67 L5.376,14.004 A15,15 0 0 1 -5.376,14.004 L-4.48,11.67 A12.5,12.5 0 0 0 4.48,11.67 Z" stroke="#2a9d8f" stroke-width="0.25" fill="none" stroke-dasharray="4 2" /><circle cx="-13.5" cy="0" r="0.6" fill="#d1495b" fill-opacity="0.12" /><circle cx="-13.5" cy="0" r="0.6" stroke="#d1495b" stroke-width="0.25" fill="none" stroke-dasharray="0.6 1.6" /></g><g aria-hidden="true"><line x1="-19.2" y1="-18.95" x2="-15.2" y2="-18.95" stroke="#2f80c4" stroke-width="0.4" /><text x="-14.2" y="-18.25" font-size="2" fill="#2f80c4" font-family="sans-serif">Throat / opening</text><line x1="-19.2" y1="-15.95" x2="-15.2" y2="-15.95" stroke="#6b7a8f" stroke-width="0.4" /><text x="-14.2" y="-15.25" font-size="2" fill="#6b7a8f" font-family="sans-serif">Mount ring</text><line x1="-19.2" y1="-12.95" x2="-15.2" y2="-12.95" stroke="#2a9d8f" stroke-width="0.4" /><text x="-14.2" y="-12.25" font-size="2" fill="#2a9d8f" font-family="sans-serif">Bayonet lug / slot</text><line x1="-19.2" y1="-9.95" x2="-15.2" y2="-9.95" stroke="#d1495b" stroke-width="0.4" /><text x="-14.2" y="-9.25" font-size="2" fill="#d1495b" font-family="sans-serif">Lock pin / notch</text><line x1="-19.2" y1="-6.95" x2="-15.2" y2="-6.95" stroke="#e8853a" stroke-width="0.4" /><text x="-14.2" y="-6.25" font-size="2" fill="#e8853a" font-family="sans-serif">Index mark</text><line x1="-19.2" y1="-3.95" x2="-15.2" y2="-3.95" stroke="#8a94a0" stroke-width="0.4" /><text x="-14.2" y="-3.25" font-size="2" fill="#8a94a0" font-family="sans-serif">Datum &amp; axis</text></g></svg>
