<?xml version="1.0" encoding="UTF-8"?>
<svg xmlns="http://www.w3.org/2000/svg" viewBox="-35 -35 70 70" role="img" aria-labelledby="sony-a-base-lens_side_rear-title sony-a-base-lens_side_rear-desc"><title id="sony-a-base-lens_side_rear-title">Sony A mount — lens-side rear view (base)</title><desc id="sony-a-base-lens_side_rear-desc">Sony A bayonet mount, lens-side rear view. Flange focal distance 44.5 mm, nominal throat 49.7 mm. Profile sony-a/base.</desc><metadata>{"mountId":"sony-a","profileId":"sony-a/base","view":"lens_side_rear","schemaVersion":"1.3"}</metadata><g data-layer="datum-axis"><line x1="-1.375" y1="0" x2="1.375" y2="0" stroke="#8a94a0" stroke-width="0.42" fill="none" /><line x1="0" y1="-1.375" x2="0" y2="1.375" stroke="#8a94a0" stroke-width="0.42" fill="none" /><line x1="0" y1="-27.5" x2="0" y2="-29.15" stroke="#8a94a0" stroke-width="0.42" fill="none" /></g><g data-layer="lens-side-metal"><path d="M0,-27.5 A27.5,27.5 0 1 1 0,27.5 A27.5,27.5 0 1 1 0,-27.5 Z M0,-23.85 A23.85,23.85 0 1 1 0,23.85 A23.85,23.85 0 1 1 0,-23.85 Z" fill="#6b7a8f" fill-opacity="0.12" fill-rule="evenodd" /><path d="M0,-27.5 A27.5,27.5 0 1 1 0,27.5 A27.5,27.5 0 1 1 0,-27.5 Z M0,-23.85 A23.85,23.85 0 1 1 0,23.85 A23.85,23.85 0 1 1 0,-23.85 Z" stroke="#6b7a8f" stroke-width="0.42" fill="none" stroke-dasharray="4 2" /><path d="M0,-23.85 A23.85,23.85 0 1 1 0,23.85 A23.85,23.85 0 1 1 0,-23.85 Z" stroke="#2f80c4" stroke-width="0.42" fill="none" stroke-dasharray="4 2" /></g><g data-layer="lens-side-core-interface"><path d="M0,-25.75 L-1.74,-28.447 L1.74,-28.447 Z" fill="#e8853a" fill-opacity="0.12" /><path d="M0,-25.75 L-1.74,-28.447 L1.74,-28.447 Z" stroke="#e8853a" stroke-width="0.42" fill="none" /><path d="M19.036,-15.973 L21.066,-17.677 A27.5,27.5 0 0 1 27.5,0 L24.85,0 A24.85,24.85 0 0 0 19.036,-15.973 Z" fill="#2a9d8f" fill-opacity="0.12" /><path d="M19.036,-15.973 L21.066,-17.677 A27.5,27.5 0 0 1 27.5,0 L24.85,0 A24.85,24.85 0 0 0 19.036,-15.973 Z" stroke="#2a9d8f" stroke-width="0.42" fill="none" /><circle cx="25.5" cy="0" r="0.963" fill="#d1495b" fill-opacity="0.12" /><circle cx="25.5" cy="0" r="0.963" stroke="#d1495b" stroke-width="0.42" fill="none" /><path d="M-4.315,24.472 L-4.775,27.082 A27.5,27.5 0 0 1 -21.066,17.677 L-19.036,15.973 A24.85,24.85 0 0 0 -4.315,24.472 Z" fill="#2a9d8f" fill-opacity="0.12" /><path d="M-4.315,24.472 L-4.775,27.082 A27.5,27.5 0 0 1 -21.066,17.677 L-19.036,15.973 A24.85,24.85 0 0 0 -4.315,24.472 Z" stroke="#2a9d8f" stroke-width="0.42" fill="none" /><path d="M-19.036,-15.973 L-21.066,-17.677 A27.5,27.5 0 0 1 -4.775,-27.082 L-4.315,-24.472 A24.85,24.85 0 0 0 -19.036,-15.973 Z" fill="#2a9d8f" fill-opacity="0.12" /><path d="M-19.036,-15.973 L-21.066,-17.677 A27.5,27.5 0 0 1 -4.775,-27.082 L-4.315,-24.472 A24.85,24.85 0 0 0 -19.036,-15.973 Z" stroke="#2a9d8f" stroke-width="0.42" fill="none" /></g><g data-layer="lens-side-variant-electrical"><path d="M-9.408,18.998 L-10.562,21.328 A23.8,23.8 0 0 1 -11.776,20.683 L-10.489,18.423 A21.2,21.2 0 0 0 -9.408,18.998 Z" fill="#8a5cd1" fill-opacity="0.12" /><path d="M-9.408,18.998 L-10.562,21.328 A23.8,23.8 0 0 1 -11.776,20.683 L-10.489,18.423 A21.2,21.2 0 0 0 -9.408,18.998 Z" stroke="#8a5cd1" stroke-width="0.42" fill="none" /><path d="M-6.672,20.123 L-7.491,22.59 A23.8,23.8 0 0 1 -8.783,22.12 L-7.823,19.704 A21.2,21.2 0 0 0 -6.672,20.123 Z" fill="#8a5cd1" fill-opacity="0.12" /><path d="M-6.672,20.123 L-7.491,22.59 A23.8,23.8 0 0 1 -8.783,22.12 L-7.823,19.704 A21.2,21.2 0 0 0 -6.672,20.123 Z" stroke="#8a5cd1" stroke-width="0.42" fill="none" /><path d="M-3.807,20.855 L-4.274,23.413 A23.8,23.8 0 0 1 -5.619,23.127 L-5.005,20.601 A21.2,21.2 0 0 0 -3.807,20.855 Z" fill="#8a5cd1" fill-opacity="0.12" /><path d="M-3.807,20.855 L-4.274,23.413 A23.8,23.8 0 0 1 -5.619,23.127 L-5.005,20.601 A21.2,21.2 0 0 0 -3.807,20.855 Z" stroke="#8a5cd1" stroke-width="0.42" fill="none" /><path d="M-0.867,21.182 L-0.974,23.78 A23.8,23.8 0 0 1 -2.345,23.684 L-2.089,21.097 A21.2,21.2 0 0 0 -0.867,21.182 Z" fill="#8a5cd1" fill-opacity="0.12" /><path d="M-0.867,21.182 L-0.974,23.78 A23.8,23.8 0 0 1 -2.345,23.684 L-2.089,21.097 A21.2,21.2 0 0 0 -0.867,21.182 Z" stroke="#8a5cd1" stroke-width="0.42" fill="none" /><path d="M2.089,21.097 L2.345,23.684 A23.8,23.8 0 0 1 0.974,23.78 L0.867,21.182 A21.2,21.2 0 0 0 2.089,21.097 Z" fill="#8a5cd1" fill-opacity="0.12" /><path d="M2.089,21.097 L2.345,23.684 A23.8,23.8 0 0 1 0.974,23.78 L0.867,21.182 A21.2,21.2 0 0 0 2.089,21.097 Z" stroke="#8a5cd1" stroke-width="0.42" fill="none" /><path d="M5.005,20.601 L5.619,23.127 A23.8,23.8 0 0 1 4.274,23.413 L3.807,20.855 A21.2,21.2 0 0 0 5.005,20.601 Z" fill="#8a5cd1" fill-opacity="0.12" /><path d="M5.005,20.601 L5.619,23.127 A23.8,23.8 0 0 1 4.274,23.413 L3.807,20.855 A21.2,21.2 0 0 0 5.005,20.601 Z" stroke="#8a5cd1" stroke-width="0.42" fill="none" /><path d="M7.823,19.704 L8.783,22.12 A23.8,23.8 0 0 1 7.491,22.59 L6.672,20.123 A21.2,21.2 0 0 0 7.823,19.704 Z" fill="#8a5cd1" fill-opacity="0.12" /><path d="M7.823,19.704 L8.783,22.12 A23.8,23.8 0 0 1 7.491,22.59 L6.672,20.123 A21.2,21.2 0 0 0 7.823,19.704 Z" stroke="#8a5cd1" stroke-width="0.42" fill="none" /><path d="M10.489,18.423 L11.776,20.683 A23.8,23.8 0 0 1 10.562,21.328 L9.408,18.998 A21.2,21.2 0 0 0 10.489,18.423 Z" fill="#8a5cd1" fill-opacity="0.12" /><path d="M10.489,18.423 L11.776,20.683 A23.8,23.8 0 0 1 10.562,21.328 L9.408,18.998 A21.2,21.2 0 0 0 10.489,18.423 Z" stroke="#8a5cd1" stroke-width="0.42" fill="none" /></g><g data-layer="lens-side-variant-mechanical"><circle cx="20.785" cy="-12" r="0.825" stroke="#b5651d" stroke-width="0.42" fill="none" /></g><g aria-hidden="true"><line x1="-33.6" y1="-31.5" x2="-29.4" y2="-31.5" stroke="#2f80c4" stroke-width="0.49" /><text x="-28.28" y="-30.716" font-size="2.24" fill="#2f80c4" font-family="sans-serif">Throat / opening</text><line x1="-33.6" y1="-28.14" x2="-29.4" y2="-28.14" stroke="#6b7a8f" stroke-width="0.49" /><text x="-28.28" y="-27.356" font-size="2.24" fill="#6b7a8f" font-family="sans-serif">Mount ring</text><line x1="-33.6" y1="-24.78" x2="-29.4" y2="-24.78" stroke="#2a9d8f" stroke-width="0.49" /><text x="-28.28" y="-23.996" font-size="2.24" fill="#2a9d8f" font-family="sans-serif">Bayonet lug / slot</text><line x1="-33.6" y1="-21.42" x2="-29.4" y2="-21.42" stroke="#d1495b" stroke-width="0.49" /><text x="-28.28" y="-20.636" font-size="2.24" fill="#d1495b" font-family="sans-serif">Lock pin / notch</text><line x1="-33.6" y1="-18.06" x2="-29.4" y2="-18.06" stroke="#e8853a" stroke-width="0.49" /><text x="-28.28" y="-17.276" font-size="2.24" fill="#e8853a" font-family="sans-serif">Index mark</text><line x1="-33.6" y1="-14.7" x2="-29.4" y2="-14.7" stroke="#8a5cd1" stroke-width="0.49" /><text x="-28.28" y="-13.916" font-size="2.24" fill="#8a5cd1" font-family="sans-serif">Electrical contact</text><line x1="-33.6" y1="-11.34" x2="-29.4" y2="-11.34" stroke="#b5651d" stroke-width="0.49" /><text x="-28.28" y="-10.556" font-size="2.24" fill="#b5651d" font-family="sans-serif">Mechanical coupling</text><line x1="-33.6" y1="-7.98" x2="-29.4" y2="-7.98" stroke="#8a94a0" stroke-width="0.49" /><text x="-28.28" y="-7.196" font-size="2.24" fill="#8a94a0" font-family="sans-serif">Datum &amp; axis</text></g></svg>
