<svg xmlns="http://www.w3.org/2000/svg" viewBox="0 0 900 360" role="img" aria-labelledby="t d">
  <title id="t">Entrance pupil as virtual image of the aperture stop</title>
  <desc id="d">Cross section with front group, iris stop, and a magnified virtual entrance pupil with dashed construction rays.</desc>
  <defs>
    <marker id="arrow" viewBox="0 0 10 10" refX="9" refY="5" markerWidth="8" markerHeight="8" orient="auto-start-reverse">
      <path d="M 0 0 L 10 5 L 0 10 z" fill="#334155"/>
    </marker>
  </defs>
  <rect width="900" height="360" fill="#f8fafc"/>
  <line x1="40" y1="180" x2="860" y2="180" stroke="#94a3b8" stroke-width="2" stroke-dasharray="7 5"/>

  <path d="M160,105 Q198,180 160,255 Q245,255 275,180 Q245,105 160,105Z" fill="#cbd5e1" stroke="#64748b" stroke-width="2"/>
  <path d="M275,95 Q315,180 275,265 Q360,265 390,180 Q360,95 275,95Z" fill="#e2e8f0" stroke="#64748b" stroke-width="2"/>

  <rect x="485" y="120" width="10" height="120" fill="#475569"/>
  <rect x="495" y="148" width="18" height="64" fill="#0f172a"/>
  <rect x="513" y="120" width="10" height="120" fill="#475569"/>

  <ellipse cx="360" cy="180" rx="40" ry="54" fill="none" stroke="#2563eb" stroke-width="3" stroke-dasharray="8 6"/>

  <line x1="504" y1="148" x2="330" y2="126" stroke="#2563eb" stroke-width="2.5" stroke-dasharray="7 5"/>
  <line x1="504" y1="212" x2="330" y2="234" stroke="#2563eb" stroke-width="2.5" stroke-dasharray="7 5"/>

  <text x="165" y="80" font-size="21" fill="#0f172a" font-family="Arial, sans-serif">Front group</text>
  <line x1="248" y1="88" x2="255" y2="110" stroke="#334155" stroke-width="2" marker-end="url(#arrow)"/>

  <text x="530" y="95" font-size="21" fill="#0f172a" font-family="Arial, sans-serif">Aperture stop (iris)</text>
  <line x1="620" y1="100" x2="522" y2="130" stroke="#334155" stroke-width="2" marker-end="url(#arrow)"/>

  <text x="72" y="322" font-size="20" fill="#1d4ed8" font-family="Arial, sans-serif">Entrance pupil (virtual image of stop)</text>
  <line x1="310" y1="309" x2="345" y2="236" stroke="#1d4ed8" stroke-width="2" marker-end="url(#arrow)"/>
</svg>
