<svg xmlns="http://www.w3.org/2000/svg" viewBox="0 0 640 220" width="100%" height="auto" role="img" aria-label="Exit pupil and chief ray angle diagram">
  <defs>
    <style>
      .bg { fill: #12151e; }
      .border { fill: none; stroke: rgba(150,170,210,0.18); stroke-width: 1; }
      .axis { stroke: rgba(150,170,210,0.32); stroke-width: 1; stroke-dasharray: 5,4; fill: none; }
      .lens-fill { fill: rgba(70,130,180,0.22); }
      .lens-stroke { fill: none; stroke: rgba(120,170,220,0.80); stroke-width: 1.5; }
      .xp-fill { fill: rgba(217,140,255,0.10); }
      .xp-stroke { fill: none; stroke: #d98cff; stroke-width: 2; }
      .sensor { stroke: rgba(180,200,240,0.80); stroke-width: 2.5; fill: none; }
      .sensor-fill { fill: rgba(80,140,220,0.12); }
      .microlens { fill: none; stroke: rgba(120,180,230,0.70); stroke-width: 1.2; }
      .pixel-fill { fill: rgba(40,100,180,0.20); }
      .ray-axial { stroke: rgba(40,216,255,0.75); stroke-width: 1.4; fill: none; }
      .ray-chief { stroke: rgba(255,200,60,0.80); stroke-width: 1.4; fill: none; }
      .dim { stroke: rgba(150,170,210,0.40); stroke-width: 1; fill: none; stroke-dasharray: 3,2; }
      .dim-solid { stroke: rgba(150,170,210,0.40); stroke-width: 1; fill: none; }
      .label { fill: #c8d8f0; font-family: 'JetBrains Mono','SF Mono',monospace; font-size: 11px; }
      .label-xp { fill: #d98cff; font-family: 'JetBrains Mono','SF Mono',monospace; font-size: 11px; }
      .label-axial { fill: #28d8ff; font-family: 'JetBrains Mono','SF Mono',monospace; font-size: 11px; }
      .label-chief { fill: #ffc83c; font-family: 'JetBrains Mono','SF Mono',monospace; font-size: 11px; }
      .muted { fill: rgba(150,170,200,0.65); font-family: 'JetBrains Mono','SF Mono',monospace; font-size: 10px; }
      .tick { stroke: rgba(150,170,210,0.40); stroke-width: 1; fill: none; }
      @media (prefers-color-scheme: light) {
        .bg { fill: #eff2f8; }
        .border { stroke: rgba(60,80,120,0.18); }
        .axis { stroke: rgba(60,80,120,0.30); }
        .lens-fill { fill: rgba(30,80,160,0.10); }
        .lens-stroke { stroke: rgba(30,80,160,0.65); }
        .xp-fill { fill: rgba(120,46,184,0.07); }
        .xp-stroke { stroke: #7a2eb8; }
        .sensor { stroke: rgba(40,80,160,0.75); }
        .sensor-fill { fill: rgba(40,80,160,0.07); }
        .microlens { stroke: rgba(30,80,160,0.60); }
        .pixel-fill { fill: rgba(30,80,160,0.12); }
        .ray-axial { stroke: rgba(0,104,120,0.75); }
        .ray-chief { stroke: rgba(160,100,0,0.80); }
        .dim { stroke: rgba(60,80,120,0.35); }
        .dim-solid { stroke: rgba(60,80,120,0.35); }
        .label { fill: #1a2540; }
        .label-xp { fill: #7a2eb8; }
        .label-axial { fill: #006878; }
        .label-chief { fill: #a06000; }
        .muted { fill: rgba(60,80,120,0.60); }
        .tick { stroke: rgba(60,80,120,0.35); }
      }
    </style>
    <marker id="arr" markerWidth="6" markerHeight="6" refX="5" refY="3" orient="auto">
      <path d="M0,0 L6,3 L0,6 Z" fill="rgba(150,170,210,0.60)"/>
    </marker>
    <marker id="arr-chief" markerWidth="6" markerHeight="6" refX="5" refY="3" orient="auto">
      <path d="M0,0 L6,3 L0,6 Z" fill="rgba(255,200,60,0.90)"/>
    </marker>
    <marker id="arr-axial" markerWidth="6" markerHeight="6" refX="5" refY="3" orient="auto">
      <path d="M0,0 L6,3 L0,6 Z" fill="rgba(40,216,255,0.90)"/>
    </marker>
  </defs>

  <!-- Background -->
  <rect width="640" height="220" rx="6" class="bg"/>
  <rect width="640" height="220" rx="6" class="border"/>

  <!-- Optical axis -->
  <line x1="30" y1="110" x2="600" y2="110" class="axis"/>

  <!-- ── Exit pupil ── -->
  <ellipse cx="120" cy="110" rx="14" ry="52" class="xp-fill"/>
  <ellipse cx="120" cy="110" rx="14" ry="52" class="xp-stroke"/>
  <text x="120" y="18" text-anchor="middle" class="label-xp">Exit pupil (XP)</text>
  <line x1="120" y1="21" x2="120" y2="56" class="tick" style="stroke-dasharray:3,2"/>

  <!-- ── Simplified rear lens group ── -->
  <path d="M 170,70 Q 155,110 170,150 L 188,150 Q 203,110 188,70 Z" class="lens-fill"/>
  <path d="M 170,70 Q 155,110 170,150" class="lens-stroke"/>
  <path d="M 188,70 Q 203,110 188,150" class="lens-stroke"/>
  <line x1="170" y1="70" x2="188" y2="70" class="lens-stroke"/>
  <line x1="170" y1="150" x2="188" y2="150" class="lens-stroke"/>

  <!-- ── Image sensor ── -->
  <!-- Sensor body -->
  <rect x="490" y="60" width="14" height="100" rx="2" class="sensor-fill"/>
  <line x1="497" y1="60" x2="497" y2="160" class="sensor"/>

  <!-- Pixels on sensor (5 pixels shown) -->
  <!-- pixel 1: center (on-axis) y=110 -->
  <rect x="488" y="104" width="14" height="12" class="pixel-fill"/>
  <!-- pixel 2: y=90 -->
  <rect x="488" y="88" width="14" height="12" class="pixel-fill"/>
  <!-- pixel 3: y=130 -->
  <rect x="488" y="124" width="14" height="12" class="pixel-fill"/>
  <!-- pixel 4: y=70 -->
  <rect x="488" y="72" width="14" height="12" class="pixel-fill"/>
  <!-- pixel 5: corner y=148 -->
  <rect x="488" y="144" width="14" height="12" class="pixel-fill"/>

  <!-- Microlenses (arcs above each pixel on the left face of sensor) -->
  <!-- center -->
  <path d="M 490,104 Q 486,110 490,116" class="microlens"/>
  <!-- y=88 -->
  <path d="M 490,88 Q 486,94 490,100" class="microlens"/>
  <!-- y=124 -->
  <path d="M 490,124 Q 486,130 490,136" class="microlens"/>
  <!-- y=72 -->
  <path d="M 490,72 Q 486,78 490,84" class="microlens"/>
  <!-- corner y=144 -->
  <path d="M 490,144 Q 486,150 490,156" class="microlens"/>
  <text x="502" y="57" text-anchor="start" class="muted">sensor</text>

  <!-- ── Chief ray: on-axis pixel (CRA = 0°) ── -->
  <line x1="120" y1="110" x2="490" y2="110" class="ray-axial" marker-end="url(#arr-axial)"/>
  <text x="290" y="104" text-anchor="middle" class="label-axial" style="font-size:10px">CRA = 0°</text>

  <!-- ── Chief ray: corner pixel (CRA > 0°) ── -->
  <!-- From XP center to corner pixel at y=78 (inside the pixel at top ~y=72+6=78) -->
  <line x1="120" y1="110" x2="490" y2="78" class="ray-chief" marker-end="url(#arr-chief)"/>

  <!-- CRA angle arc at the corner pixel end -->
  <path d="M 490,78 L 470,78 A 20,20 0 0,1 473,66" fill="none" stroke="rgba(255,200,60,0.60)" stroke-width="1"/>
  <text x="455" y="65" text-anchor="middle" class="label-chief" style="font-size:10px">CRA &gt; 0°</text>

  <!-- ── d_XP dimension line ── -->
  <line x1="120" y1="170" x2="490" y2="170" class="dim-solid" marker-end="url(#arr)"/>
  <line x1="490" y1="170" x2="120" y2="170" class="dim-solid" marker-end="url(#arr)"/>
  <line x1="120" y1="165" x2="120" y2="175" class="tick"/>
  <line x1="490" y1="165" x2="490" y2="175" class="tick"/>
  <text x="305" y="184" text-anchor="middle" class="label-xp" style="font-size:11px">d&#x2093;&#x2097; (exit-pupil distance)</text>

  <!-- ── y′ image height dimension ── -->
  <line x1="510" y1="110" x2="510" y2="78" class="dim-solid"/>
  <line x1="506" y1="110" x2="514" y2="110" class="tick"/>
  <line x1="506" y1="78" x2="514" y2="78" class="tick"/>
  <text x="525" y="96" text-anchor="start" class="label" style="font-size:10px">y′</text>
  <text x="521" y="107" text-anchor="start" class="muted">(image height)</text>

  <!-- Legend -->
  <line x1="40" y1="200" x2="70" y2="200" class="ray-axial"/>
  <text x="75" y="204" class="label-axial" style="font-size:10px">on-axis chief ray (CRA=0°)</text>
  <line x1="300" y1="200" x2="330" y2="200" class="ray-chief"/>
  <text x="335" y="204" class="label-chief" style="font-size:10px">off-axis chief ray (CRA&gt;0°)</text>
</svg>
