<svg xmlns="http://www.w3.org/2000/svg" viewBox="0 0 920 350" role="img" aria-labelledby="t d">
  <title id="t">Panorama rotation: entrance pupil versus tripod socket</title>
  <desc id="d">Side-by-side views showing no parallax when rotating about entrance pupil and visible parallax when rotating about tripod socket.</desc>
  <rect width="920" height="350" fill="#f8fafc"/>
  <line x1="460" y1="20" x2="460" y2="330" stroke="#cbd5e1" stroke-width="2"/>

  <text x="80" y="40" font-size="20" font-family="Arial, sans-serif" fill="#065f46">Rotate about entrance pupil (no parallax)</text>
  <text x="520" y="40" font-size="20" font-family="Arial, sans-serif" fill="#991b1b">Rotate about tripod socket (parallax)</text>

  <circle cx="220" cy="190" r="16" fill="#10b981"/>
  <rect x="184" y="205" width="72" height="20" rx="8" fill="#475569"/>
  <line x1="220" y1="190" x2="220" y2="92" stroke="#10b981" stroke-width="3" stroke-dasharray="7 5"/>
  <rect x="120" y="84" width="38" height="120" fill="#f59e0b"/>
  <rect x="296" y="72" width="42" height="132" fill="#60a5fa"/>
  <line x1="220" y1="190" x2="139" y2="144" stroke="#059669" stroke-width="3"/>
  <line x1="220" y1="190" x2="317" y2="138" stroke="#059669" stroke-width="3"/>
  <text x="120" y="230" font-size="16" fill="#334155" font-family="Arial, sans-serif">near target</text>
  <text x="285" y="225" font-size="16" fill="#334155" font-family="Arial, sans-serif">far target</text>
  <text x="174" y="88" font-size="15" fill="#065f46" font-family="Arial, sans-serif">aligned in both frames</text>

  <circle cx="680" cy="190" r="16" fill="#ef4444"/>
  <rect x="644" y="205" width="72" height="20" rx="8" fill="#475569"/>
  <line x1="680" y1="215" x2="680" y2="96" stroke="#ef4444" stroke-width="3" stroke-dasharray="7 5"/>
  <rect x="580" y="84" width="38" height="120" fill="#f59e0b"/>
  <rect x="756" y="72" width="42" height="132" fill="#60a5fa"/>
  <line x1="680" y1="215" x2="598" y2="152" stroke="#dc2626" stroke-width="3"/>
  <line x1="680" y1="215" x2="777" y2="138" stroke="#dc2626" stroke-width="3"/>
  <line x1="680" y1="190" x2="598" y2="126" stroke="#f97316" stroke-width="2" stroke-dasharray="6 6"/>
  <line x1="680" y1="190" x2="777" y2="126" stroke="#f97316" stroke-width="2" stroke-dasharray="6 6"/>
  <text x="566" y="230" font-size="16" fill="#334155" font-family="Arial, sans-serif">near target</text>
  <text x="745" y="225" font-size="16" fill="#334155" font-family="Arial, sans-serif">far target</text>
  <text x="548" y="88" font-size="15" fill="#991b1b" font-family="Arial, sans-serif">near target shifts vs far target</text>
</svg>
