<svg xmlns="http://www.w3.org/2000/svg" viewBox="0 0 1080 320" role="img" aria-labelledby="t d">
  <title id="t">Object-space, image-space, and double telecentric layouts</title>
  <desc id="d">Three panel sketch comparing chief-ray parallelism and pupil at infinity conditions.</desc>
  <rect width="1080" height="320" fill="#f8fafc"/>

  <g transform="translate(20,0)">
    <rect x="0" y="20" width="330" height="280" rx="10" fill="#ecfeff" stroke="#99f6e4"/>
    <text x="16" y="48" font-size="18" font-family="Arial, sans-serif" fill="#0f172a">Object-space telecentric</text>
    <line x1="25" y1="160" x2="305" y2="160" stroke="#94a3b8" stroke-width="2" stroke-dasharray="6 5"/>
    <line x1="40" y1="120" x2="160" y2="120" stroke="#0891b2" stroke-width="3"/>
    <line x1="40" y1="200" x2="160" y2="200" stroke="#0891b2" stroke-width="3"/>
    <path d="M160,110 L205,160 L160,210" fill="none" stroke="#0f766e" stroke-width="3"/>
    <line x1="205" y1="160" x2="290" y2="90" stroke="#dc2626" stroke-width="3"/>
    <line x1="205" y1="160" x2="290" y2="230" stroke="#dc2626" stroke-width="3"/>
    <text x="24" y="85" font-size="14" fill="#0f766e" font-family="Arial, sans-serif">Entrance pupil at infinity</text>
  </g>

  <g transform="translate(375,0)">
    <rect x="0" y="20" width="330" height="280" rx="10" fill="#eff6ff" stroke="#bfdbfe"/>
    <text x="24" y="48" font-size="18" font-family="Arial, sans-serif" fill="#0f172a">Image-space telecentric</text>
    <line x1="25" y1="160" x2="305" y2="160" stroke="#94a3b8" stroke-width="2" stroke-dasharray="6 5"/>
    <line x1="40" y1="90" x2="165" y2="160" stroke="#dc2626" stroke-width="3"/>
    <line x1="40" y1="230" x2="165" y2="160" stroke="#dc2626" stroke-width="3"/>
    <path d="M165,110 L210,160 L165,210" fill="none" stroke="#1d4ed8" stroke-width="3"/>
    <line x1="210" y1="120" x2="290" y2="120" stroke="#0ea5e9" stroke-width="3"/>
    <line x1="210" y1="200" x2="290" y2="200" stroke="#0ea5e9" stroke-width="3"/>
    <text x="169" y="90" font-size="14" fill="#1e3a8a" font-family="Arial, sans-serif">Exit pupil at infinity</text>
  </g>

  <g transform="translate(730,0)">
    <rect x="0" y="20" width="330" height="280" rx="10" fill="#f5f3ff" stroke="#ddd6fe"/>
    <text x="72" y="48" font-size="18" font-family="Arial, sans-serif" fill="#0f172a">Double telecentric</text>
    <line x1="25" y1="160" x2="305" y2="160" stroke="#94a3b8" stroke-width="2" stroke-dasharray="6 5"/>
    <line x1="38" y1="120" x2="152" y2="120" stroke="#7c3aed" stroke-width="3"/>
    <line x1="38" y1="200" x2="152" y2="200" stroke="#7c3aed" stroke-width="3"/>
    <path d="M152,110 L195,160 L152,210" fill="none" stroke="#6d28d9" stroke-width="3"/>
    <line x1="195" y1="120" x2="292" y2="120" stroke="#a78bfa" stroke-width="3"/>
    <line x1="195" y1="200" x2="292" y2="200" stroke="#a78bfa" stroke-width="3"/>
    <text x="32" y="85" font-size="13" fill="#6d28d9" font-family="Arial, sans-serif">Entrance pupil at infinity</text>
    <text x="178" y="85" font-size="13" fill="#6d28d9" font-family="Arial, sans-serif">Exit pupil at infinity</text>
  </g>
</svg>
