<svg xmlns="http://www.w3.org/2000/svg" role="img" aria-labelledby="pentax-k-lens_side_rear_view-title pentax-k-lens_side_rear_view-desc" viewBox="-32 -32 64 64"><title id="pentax-k-lens_side_rear_view-title">Pentax K mount - lens-side rear view (pentax-k/kaf2)</title><desc id="pentax-k-lens_side_rear_view-desc">Pentax K lens-side rear view; flange focal distance 45.46 mm; nominal throat unknown mm.</desc><metadata>{"mountId":"pentax-k","profileId":"pentax-k/kaf2","view":"lens_side_rear_view","schemaVersion":"1.3"}</metadata><style>
.datum-line{stroke:#7d8590;stroke-width:.35;fill:none}
.datum-center{fill:#7d8590;stroke:none}
.datum-label,.feature-label,.unknown-label,.legend-label{font-family:'JetBrains Mono','SF Mono','Fira Code',monospace;font-size:2.7px;fill:#5f6b76}
.legend-label{font-size:2.4px}
.status-official,.status-measured{stroke:#334155;stroke-width:.8;fill:none}
.status-secondary,.status-service-manual{stroke:#64748b;stroke-width:.65;fill:none}
.status-patent{stroke:#475569;stroke-width:.65;fill:none}
.status-photo-scaled{stroke:#64748b;stroke-width:.65;stroke-dasharray:2.4 1.4;fill:none}
.status-conflicting{stroke:#b45309;stroke-width:.75;stroke-dasharray:2.2 1 .5 1;fill:none}
.status-unknown{stroke:#94a3b8;stroke-width:.55;stroke-dasharray:.7 1.5;fill:none}
.status-not-applicable{display:none}
rect.status-secondary,rect.status-photo-scaled,rect.status-unknown{fill:#e2e8f0;fill-opacity:.2}
path.status-photo-scaled,path.status-secondary{fill:#cbd5e1;fill-opacity:.16}
</style><line class="datum-line" x1="0" y1="-27" x2="0" y2="27"/><line class="datum-line" x1="-27" y1="0" x2="27" y2="0"/><circle class="datum-center" cx="0" cy="0" r="1"/><text class="datum-label" x="2" y="-23">0 deg</text><circle class="status-unknown" cx="0" cy="0" r="22" data-label="nominal throat"/><circle class="status-unknown" cx="0" cy="0" r="27" data-label="mount outer envelope"/><path class="status-photo-scaled" d="M -26.852 2.822 A 27 27 0 1 1 -17.355 20.683 L -15.427 18.385 A 24 24 0 1 0 -23.869 2.509 Z" data-label="lens-lug-set"/><path class="status-photo-scaled" d="M -9.235 -25.372 A 27 27 0 1 1 -25.034 -10.114 L -22.252 -8.991 A 24 24 0 1 0 -8.208 -22.553 Z" data-label="lens-kaf2-contact-block"/><rect class="status-photo-scaled" x="-18.961" y="-20.203" width="1.8" height="3" data-label="lens contact 1"/><rect class="status-photo-scaled" x="-1.8" y="22.2" width="3.6" height="3.6" data-label="af-screw-drive"/><rect class="status-photo-scaled" x="17.86" y="11.966" width="3.6" height="3.6" data-label="aperture-lever"/><circle class="status-unknown" cx="0" cy="25" r="1.6" data-label="lens-af-coupler"/><text class="unknown-label" x="2" y="25">lens-af-coupler: unknown</text><text class="feature-label" x="2.5" y="25">af-screw-drive</text><text class="feature-label" x="22.16" y="14.766">aperture-lever</text><text class="legend-label" x="-28" y="-25">solid: sourced</text><text class="legend-label" x="-28" y="-20">dash: inferred</text><text class="legend-label" x="-28" y="-15">dot: unknown</text></svg>
