<svg xmlns="http://www.w3.org/2000/svg" role="img" aria-labelledby="canon-ef-lens_side_rear_view-title canon-ef-lens_side_rear_view-desc" viewBox="-36 -36 72 72"><title id="canon-ef-lens_side_rear_view-title">Canon EF mount - lens-side rear view (canon-ef/base)</title><desc id="canon-ef-lens_side_rear_view-desc">Canon EF lens-side rear view; flange focal distance 44 mm; nominal throat 54 mm.</desc><metadata>{"mountId":"canon-ef","profileId":"canon-ef/base","view":"lens_side_rear_view","schemaVersion":"1.3"}</metadata><style>
.datum-line{stroke:#7d8590;stroke-width:.35;fill:none}
.datum-center{fill:#7d8590;stroke:none}
.datum-label,.feature-label,.unknown-label,.legend-label{font-family:'JetBrains Mono','SF Mono','Fira Code',monospace;font-size:2.7px;fill:#5f6b76}
.legend-label{font-size:2.4px}
.status-official,.status-measured{stroke:#334155;stroke-width:.8;fill:none}
.status-secondary,.status-service-manual{stroke:#64748b;stroke-width:.65;fill:none}
.status-patent{stroke:#475569;stroke-width:.65;fill:none}
.status-photo-scaled{stroke:#64748b;stroke-width:.65;stroke-dasharray:2.4 1.4;fill:none}
.status-conflicting{stroke:#b45309;stroke-width:.75;stroke-dasharray:2.2 1 .5 1;fill:none}
.status-unknown{stroke:#94a3b8;stroke-width:.55;stroke-dasharray:.7 1.5;fill:none}
.status-not-applicable{display:none}
rect.status-secondary,rect.status-photo-scaled,rect.status-unknown{fill:#e2e8f0;fill-opacity:.2}
path.status-photo-scaled,path.status-secondary{fill:#cbd5e1;fill-opacity:.16}
</style><line class="datum-line" x1="0" y1="-32" x2="0" y2="32"/><line class="datum-line" x1="-32" y1="0" x2="32" y2="0"/><circle class="datum-center" cx="0" cy="0" r="1"/><text class="datum-label" x="2" y="-28">0 deg</text><circle class="status-official" cx="0" cy="0" r="27" data-label="nominal throat"/><circle class="status-unknown" cx="0" cy="0" r="32" data-label="mount outer envelope"/><path class="status-photo-scaled" d="M -31.689 4.454 A 32 32 0 1 1 -19.701 25.216 L -16.623 21.276 A 27 27 0 1 0 -26.737 3.758 Z" data-label="lens-lug-set"/><path class="status-photo-scaled" d="M -11.987 -29.67 A 32 32 0 1 1 -28.254 -15.023 L -23.84 -12.676 A 27 27 0 1 0 -10.114 -25.034 Z" data-label="lens-contact-block"/><rect class="status-photo-scaled" x="-21.643" y="-24.537" width="1.8" height="3" data-label="lens contact 1"/><circle class="status-unknown" cx="-15" cy="-25.981" r="1.6" data-label="lens-lock-notch"/><text class="unknown-label" x="-13" y="-25.981">lens-lock-notch: unknown</text><text class="legend-label" x="-32" y="-29">solid: sourced</text><text class="legend-label" x="-32" y="-24">dash: inferred</text><text class="legend-label" x="-32" y="-19">dot: unknown</text></svg>
